<?xml version="1.0" encoding="UTF-8"?>
<svg version="1.1" xmlns="http://www.w3.org/2000/svg" width="750" height="750">
<path d="M0 0 C1.9919456 -0.00374167 3.98388973 -0.00834524 5.97583157 -0.01373065 C11.42236523 -0.02591242 16.86883725 -0.02570588 22.31538141 -0.02334189 C28.20043714 -0.0229325 34.08547343 -0.03398467 39.97052002 -0.04345703 C51.4911617 -0.0600422 63.01178291 -0.06556548 74.53243553 -0.06668179 C83.90264937 -0.06760277 93.27285662 -0.07172931 102.64306831 -0.07808304 C105.3455701 -0.07987829 108.0480719 -0.08165792 110.75057369 -0.08343279 C111.42253445 -0.08387489 112.09449521 -0.08431699 112.78681842 -0.08477248 C131.67632893 -0.09707303 150.56583714 -0.10497443 169.45535183 -0.10408592 C170.16684318 -0.10405476 170.87833453 -0.10402361 171.61138623 -0.10399151 C175.21706016 -0.1038253 178.82273409 -0.10362722 182.42840802 -0.10342209 C183.14443406 -0.1033822 183.8604601 -0.10334231 184.5981839 -0.10330121 C186.04616299 -0.10322034 187.49414209 -0.10313674 188.94212118 -0.10305043 C211.45395809 -0.10182581 233.96573467 -0.11682492 256.47755432 -0.14419556 C281.8040553 -0.17497611 307.13051665 -0.19212441 332.45703751 -0.19026911 C335.1623685 -0.19011987 337.86769948 -0.19002244 340.57303047 -0.18996048 C341.572116 -0.18992552 341.572116 -0.18992552 342.59138508 -0.18988985 C352.60983977 -0.18983231 362.628239 -0.2004841 372.64668083 -0.21662521 C384.05549758 -0.23488924 395.46421547 -0.23914166 406.87304055 -0.22560637 C412.68641552 -0.21910269 418.49960113 -0.21886496 424.31295776 -0.23631287 C429.64970827 -0.25216454 434.98612119 -0.24905788 440.32286406 -0.2317446 C442.23873734 -0.22870108 444.1546366 -0.23220524 446.07047921 -0.24346475 C483.15246255 -0.44671186 518.0110488 12.0578474 546.21022034 36.26742554 C547.11514221 37.03828491 548.02006409 37.80914429 548.95240784 38.60336304 C555.45404003 44.31255253 560.98797764 50.37696642 566.21022034 57.26742554 C566.61627502 57.79851929 567.02232971 58.32961304 567.44068909 58.87680054 C588.44445453 86.53714395 597.5393991 118.55155397 597.47764587 153.0572052 C597.48138755 155.0491508 597.48599112 157.04109493 597.49137652 159.03303677 C597.50355829 164.47957043 597.50335175 169.92604245 597.50098777 175.37258661 C597.50057837 181.25764234 597.51163055 187.14267863 597.52110291 193.02772522 C597.53768808 204.5483669 597.54321135 216.06898811 597.54432766 227.58964073 C597.54524865 236.95985457 597.54937519 246.33006182 597.55572891 255.70027351 C597.55752416 258.4027753 597.55930379 261.1052771 597.56107867 263.80777889 C597.56174181 264.81572003 597.56174181 264.81572003 597.56241835 265.84402362 C597.57471891 284.73353413 597.5826203 303.62304234 597.5817318 322.51255703 C597.58170064 323.22404838 597.58166948 323.93553973 597.58163738 324.66859143 C597.58147118 328.27426536 597.5812731 331.87993929 597.58106796 335.48561322 C597.58100813 336.55965228 597.58100813 336.55965228 597.58094708 337.6553891 C597.58086621 339.10336819 597.58078261 340.55134729 597.5806963 341.99932638 C597.57947168 364.51116329 597.5944708 387.02293987 597.62184143 409.53475952 C597.65262199 434.8612605 597.66977028 460.18772186 597.66791499 485.51424271 C597.66776574 488.2195737 597.66766832 490.92490468 597.66760635 493.63023567 C597.66757139 494.6293212 597.66757139 494.6293212 597.66753572 495.64859028 C597.66747819 505.66704497 597.67812997 515.6854442 597.69427109 525.70388603 C597.71253512 537.11270278 597.71678753 548.52142067 597.70325224 559.93024575 C597.69674856 565.74362072 597.69651083 571.55680633 597.71395874 577.37016296 C597.72981041 582.70691347 597.72670376 588.04332639 597.70939048 593.38006926 C597.70634695 595.29594254 597.70985112 597.2118418 597.72111063 599.12768441 C597.92435773 636.20966775 585.41979847 671.068254 561.21022034 699.26742554 C560.43936096 700.17234741 559.66850159 701.07726929 558.87428284 702.00961304 C553.16509335 708.51124523 547.10067945 714.04518284 540.21022034 719.26742554 C539.67912659 719.67348022 539.14803284 720.07953491 538.60084534 720.49789429 C510.94050192 741.50165973 478.9260919 750.5966043 444.42044067 750.53485107 C442.42849507 750.53859275 440.43655094 750.54319632 438.44460911 750.54858172 C432.99807544 750.56076349 427.55160343 750.56055695 422.10505927 750.55819297 C416.22000353 750.55778357 410.33496724 750.56883575 404.44992065 750.57830811 C392.92927897 750.59489328 381.40865777 750.60041655 369.88800514 750.60153286 C360.5177913 750.60245385 351.14758406 750.60658039 341.77737236 750.61293411 C339.07487057 750.61472936 336.37236878 750.61650899 333.66986698 750.61828387 C332.66192584 750.61894701 332.66192584 750.61894701 331.63362225 750.61962355 C312.74411175 750.63192411 293.85460353 750.6398255 274.96508884 750.638937 C274.25359749 750.63890584 273.54210614 750.63887468 272.80905445 750.63884258 C269.20338051 750.63867638 265.59770658 750.6384783 261.99203265 750.63827316 C261.27600662 750.63823327 260.55998058 750.63819338 259.82225678 750.63815228 C258.37427768 750.63807141 256.92629859 750.63798781 255.47831949 750.6379015 C232.96648259 750.63667688 210.454706 750.651676 187.94288635 750.67904663 C162.61638537 750.70982719 137.28992402 750.72697548 111.96340317 750.72512019 C109.25807218 750.72497094 106.55274119 750.72487352 103.8474102 750.72481155 C103.18135318 750.72478825 102.51529616 750.72476494 101.82905559 750.72474092 C91.81060091 750.72468339 81.79220168 750.73533517 71.77375984 750.75147629 C60.3649431 750.76974032 48.9562252 750.77399273 37.54740012 750.76045744 C31.73402516 750.75395376 25.92083954 750.75371603 20.10748291 750.77116394 C14.77073241 750.78701561 9.43431948 750.78390896 4.09757661 750.76659568 C2.18170333 750.76355215 0.26580408 750.76705632 -1.65003853 750.77831583 C-38.73202187 750.98156293 -73.59060813 738.47700367 -101.78977966 714.26742554 C-102.69470154 713.49656616 -103.59962341 712.72570679 -104.53196716 711.93148804 C-111.03359936 706.22229855 -116.56753696 700.15788466 -121.78977966 693.26742554 C-122.19583435 692.73633179 -122.60188904 692.20523804 -123.02024841 691.65805054 C-144.02401386 663.99770712 -153.11895843 631.9832971 -153.0572052 597.47764587 C-153.06094687 595.48570027 -153.06555044 593.49375614 -153.07093585 591.50181431 C-153.08311762 586.05528064 -153.08291108 580.60880863 -153.08054709 575.16226447 C-153.0801377 569.27720873 -153.09118987 563.39217244 -153.10066223 557.50712585 C-153.1172474 545.98648418 -153.12277068 534.46586297 -153.12388699 522.94521035 C-153.12480797 513.5749965 -153.12893451 504.20478926 -153.13528824 494.83457756 C-153.13708349 492.13207577 -153.13886312 489.42957398 -153.14063799 486.72707218 C-153.14108009 486.05511142 -153.14152219 485.38315066 -153.14197768 484.69082745 C-153.15427823 465.80131695 -153.16217963 446.91180873 -153.16129112 428.02229404 C-153.16124439 426.95505702 -153.16124439 426.95505702 -153.16119671 425.86625965 C-153.1610305 422.26058571 -153.16083242 418.65491178 -153.16062729 415.04923785 C-153.1605874 414.33321182 -153.16054751 413.61718578 -153.16050641 412.87946198 C-153.16042554 411.43148288 -153.16034194 409.98350379 -153.16025563 408.53552469 C-153.15903101 386.02368779 -153.17403012 363.5119112 -153.20140076 341.00009155 C-153.23218131 315.67359057 -153.24932961 290.34712922 -153.24747431 265.02060837 C-153.24732507 262.31527738 -153.24722764 259.60994639 -153.24716568 256.9046154 C-153.24713072 255.90552987 -153.24713072 255.90552987 -153.24709505 254.88626079 C-153.24703751 244.86780611 -153.2576893 234.84940688 -153.27383041 224.83096504 C-153.29209444 213.4221483 -153.29634686 202.0134304 -153.28281157 190.60460532 C-153.27630789 184.79123036 -153.27607016 178.97804474 -153.29351807 173.16468811 C-153.30936974 167.82793761 -153.30626308 162.49152468 -153.2889498 157.15478181 C-153.28590628 155.23890853 -153.28941044 153.32300928 -153.30066995 151.40716667 C-153.50391706 114.32518333 -140.9993578 79.46659707 -116.78977966 51.26742554 C-115.6334906 49.91004272 -115.6334906 49.91004272 -114.45384216 48.52523804 C-108.74465267 42.02360584 -102.68023878 36.48966824 -95.78977966 31.26742554 C-95.25868591 30.86137085 -94.72759216 30.45531616 -94.18040466 30.03695679 C-66.52006125 9.03319134 -34.50565123 -0.06175323 0 0 Z " fill="#FEFEFE" transform="translate(152.78977966308594,-0.267425537109375)"/>
<path d="M0 0 C3.22453866 0.02365963 6.44824735 0.02052181 9.67285156 0.01391602 C25.96297167 0.03567773 42.26669861 0.81136982 58.29003906 3.96118164 C59.13107178 4.12521484 59.97210449 4.28924805 60.83862305 4.45825195 C79.86956659 8.38655517 98.46305096 14.49439334 116.22753906 22.33618164 C117.06945801 22.70437012 117.91137695 23.07255859 118.77880859 23.4519043 C143.14741514 34.22918621 165.23397879 48.79258351 185.22753906 66.33618164 C186.06671875 67.06321289 186.90589844 67.79024414 187.77050781 68.53930664 C198.83244087 78.28391325 209.20061035 88.66883503 218.22753906 100.33618164 C219.02546875 101.34036133 219.82339844 102.34454102 220.64550781 103.37915039 C249.19555969 139.52845614 267.96792445 182.62611509 275.54003906 228.02368164 C275.77932129 229.427229 275.77932129 229.427229 276.0234375 230.85913086 C277.04597924 237.47856497 277.46786852 244.06667949 277.77514648 250.74951172 C277.81940514 251.6735807 277.86366379 252.59764969 277.90926361 253.54972076 C278.01732491 255.81178866 278.12336645 258.07393189 278.22753906 260.33618164 C279.25626633 260.32951981 280.28499359 260.32285797 281.34489441 260.31599426 C291.04124226 260.25517045 300.73755138 260.21020288 310.43404675 260.18074512 C315.41908407 260.16509146 320.40396735 260.14385853 325.38891602 260.10986328 C330.19997484 260.07725934 335.0108855 260.05932638 339.82204628 260.05154991 C341.65726364 260.04600827 343.49247292 260.03518681 345.32762718 260.01899147 C347.89885332 259.99720339 350.46946783 259.99421528 353.04077148 259.99560547 C354.17797386 259.97942673 354.17797386 259.97942673 355.33815002 259.96292114 C359.81859899 259.98912091 362.68382758 260.54220722 366.22753906 263.33618164 C368.89590317 267.3387278 369.06156287 270.62931463 368.22753906 275.33618164 C366.04594761 278.09187611 364.35576413 279.77206911 361.22753906 281.33618164 C358.60322757 281.4292332 356.0056911 281.46197779 353.38134766 281.44970703 C352.57150925 281.44985306 351.76167084 281.44999908 350.92729187 281.45014954 C348.2434931 281.44945141 345.55976325 281.44166368 342.87597656 281.43383789 C341.01795489 281.43197336 339.15993274 281.43054962 337.3019104 281.42955017 C332.40611418 281.42572779 327.51034751 281.41589987 322.61456299 281.40484619 C317.62097575 281.39462608 312.62738374 281.39005126 307.63378906 281.38500977 C297.83169273 281.37427737 288.02961835 281.35720428 278.22753906 281.33618164 C278.16418869 282.55856033 278.10083832 283.78093903 278.03556824 285.0403595 C277.94886695 286.66737422 277.86205376 288.29438298 277.77514648 289.92138672 C277.73383354 290.7242939 277.6925206 291.52720108 277.64995575 292.35443878 C277.2929538 298.97124704 276.5843891 305.47817427 275.54003906 312.02368164 C275.36561279 313.12325195 275.19118652 314.22282227 275.01147461 315.35571289 C273.14734357 326.56465633 270.51337798 337.4627795 267.22753906 348.33618164 C266.92251465 349.34583984 266.61749023 350.35549805 266.30322266 351.39575195 C256.68916198 382.46847346 241.79706311 412.06097792 221.22753906 437.33618164 C220.5765625 438.17793945 219.92558594 439.01969727 219.25488281 439.88696289 C207.11267237 455.51974718 192.84841703 470.19390255 177.22753906 482.33618164 C176.24527344 483.12379883 175.26300781 483.91141602 174.25097656 484.72290039 C146.2322393 507.00843069 114.2650459 521.79993674 80.22753906 532.33618164 C79.51114258 532.5653125 78.79474609 532.79444336 78.05664062 533.03051758 C73.82738301 534.37526276 69.56760718 535.42730523 65.22753906 536.33618164 C63.74036377 536.65329102 63.74036377 536.65329102 62.22314453 536.97680664 C47.1669458 540.08518315 32.5144194 541.83930367 17.16503906 541.96118164 C16.44890442 541.97403198 15.73276978 541.98688232 14.99493408 542.00012207 C12.95679382 542.02939201 10.91817482 542.01567632 8.87988281 542.00024414 C7.71448975 541.99460449 6.54909668 541.98896484 5.34838867 541.9831543 C1.28617468 541.14103061 -0.20369105 539.52928305 -2.77246094 536.33618164 C-3.83496094 532.89868164 -3.83496094 532.89868164 -3.77246094 529.33618164 C-1.79307627 525.58948923 -0.3023004 523.68940795 3.22753906 521.33618164 C6.0612793 521.00488281 6.0612793 521.00488281 9.53613281 520.87915039 C10.82624268 520.82162598 12.11635254 520.76410156 13.44555664 520.70483398 C14.47611679 520.66190216 14.47611679 520.66190216 15.52749634 520.61810303 C64.45427483 518.45686703 113.77442174 502.87035779 153.22753906 473.33618164 C154.08412109 472.70848877 154.08412109 472.70848877 154.95800781 472.06811523 C162.2196543 466.74443104 168.95775023 461.0177795 175.51660156 454.85961914 C177.77009082 452.76199081 180.0609407 450.75559054 182.41503906 448.77368164 C210.91223823 423.89702827 230.1545013 387.6740161 242.97753906 352.71118164 C243.34258545 351.72279297 243.70763184 350.7344043 244.08374023 349.71606445 C249.09126749 335.70646013 251.88102755 321.58695244 253.91503906 306.89868164 C254.12850186 305.40964453 254.34269296 303.92071164 254.55761719 302.43188477 C255.56232797 295.40716014 256.44358599 288.39175932 257.22753906 281.33618164 C249.96753906 281.33618164 242.70753906 281.33618164 235.22753906 281.33618164 C235.22753906 284.63618164 235.22753906 287.93618164 235.22753906 291.33618164 C235.04840078 293.34043358 234.82333219 295.34177688 234.52832031 297.33227539 C234.37387451 298.37561035 234.21942871 299.41894531 234.06030273 300.49389648 C233.88861572 301.57622559 233.71692871 302.65855469 233.54003906 303.77368164 C233.35997314 304.91530762 233.17990723 306.05693359 232.99438477 307.2331543 C225.85811528 350.70922237 206.45916707 391.66051115 176.41894531 423.95727539 C174.65438774 425.87281115 172.98246298 427.80749958 171.35253906 429.83618164 C167.97674808 433.80770045 166.59301242 435.1627882 161.29003906 435.83618164 C157.73750923 435.72350812 157.23148237 435.33945375 154.29003906 432.89868164 C153.60941406 432.05305664 152.92878906 431.20743164 152.22753906 430.33618164 C151.89753906 430.00618164 151.56753906 429.67618164 151.22753906 429.33618164 C150.49394993 424.71457012 150.14902803 421.90846882 152.84863281 417.97290039 C155.24626657 415.36157378 157.73169124 412.85370108 160.22753906 410.33618164 C189.89417633 377.62517471 207.54756977 336.46895972 212.82910156 292.78540039 C212.96485596 291.68047241 213.10061035 290.57554443 213.24047852 289.43713379 C213.57186988 286.73709712 213.90083547 284.03678884 214.22753906 281.33618164 C213.04064244 281.33808024 211.85374581 281.33997884 210.63088262 281.34193498 C158.33512663 281.42526067 106.03936482 281.5024022 53.74356079 281.54789734 C52.95211663 281.54858762 52.16067248 281.54927791 51.34524517 281.54998911 C34.145996 281.56495284 16.94674611 281.57880386 -0.25250486 281.59150829 C-8.68672866 281.5977451 -17.12095227 281.60422785 -25.55517578 281.61083984 C-26.81415134 281.61182054 -26.81415134 281.61182054 -28.09856075 281.61282104 C-55.31466672 281.63413664 -82.53072086 281.67169978 -109.74679542 281.71766774 C-137.70941329 281.76481096 -165.67200247 281.79560427 -193.63465942 281.80575659 C-197.58207623 281.80719741 -201.52949295 281.8088256 -205.47690964 281.81056786 C-206.64229869 281.81107353 -206.64229869 281.81107353 -207.83123095 281.81158942 C-220.34936084 281.81750337 -232.86740215 281.84070806 -245.38549589 281.87034181 C-257.96330732 281.89974927 -270.54103072 281.91102878 -283.11887534 281.90368853 C-289.93676087 281.9002149 -296.75440853 281.90485319 -303.57224655 281.93220901 C-309.80862479 281.9564512 -316.04456605 281.95782769 -322.28096394 281.94067612 C-324.54216813 281.93855475 -326.80339903 281.94497327 -329.06455024 281.96059755 C-332.12931114 281.9805506 -335.19247728 281.96991977 -338.25721169 281.95142078 C-339.58603177 281.97112339 -339.58603177 281.97112339 -340.9416967 281.99122402 C-345.19473328 281.93287804 -347.93144404 281.64328101 -351.30466402 278.92272919 C-354.16889421 275.92067196 -354.67593429 275.17274588 -355.14746094 271.08618164 C-354.65318798 266.14345206 -353.23417793 264.79789863 -349.77246094 261.33618164 C-346.63248425 259.7661933 -343.28069733 260.20673619 -339.83447266 260.22265625 C-339.01488068 260.22251022 -338.1952887 260.2223642 -337.3508606 260.22221375 C-334.63459653 260.2229119 -331.91840056 260.23069976 -329.20214844 260.23852539 C-327.32170652 260.24038992 -325.44126411 260.24181366 -323.56082153 260.24281311 C-318.60584172 260.24663557 -313.65089111 260.25646356 -308.69592285 260.26751709 C-303.64201248 260.27773703 -298.58809741 260.28231198 -293.53417969 260.28735352 C-283.61359392 260.29808605 -273.69302986 260.31515924 -263.77246094 260.33618164 C-263.77803513 259.39335327 -263.78360931 258.4505249 -263.78935242 257.47912598 C-263.79585564 255.60915955 -263.79585564 255.60915955 -263.80249023 253.70141602 C-263.80806442 252.46983765 -263.81363861 251.23825928 -263.81938171 249.96936035 C-263.75352374 244.86983274 -263.25107894 239.88797219 -262.58496094 234.83618164 C-262.38205444 233.29244873 -262.38205444 233.29244873 -262.17504883 231.7175293 C-257.06734155 194.87088473 -243.77173983 158.70227242 -223.77246094 127.33618164 C-223.12019531 126.30106445 -222.46792969 125.26594727 -221.79589844 124.19946289 C-213.76226098 111.81840434 -204.82822915 100.13392886 -194.77246094 89.33618164 C-193.60104639 87.98612 -192.43416674 86.6321065 -191.27246094 85.27368164 C-184.98041681 78.06616689 -178.10449653 71.47328106 -170.77246094 65.33618164 C-170.22203125 64.87195801 -169.67160156 64.40773438 -169.10449219 63.92944336 C-159.7306419 56.05157704 -150.15084765 48.83602636 -139.77246094 42.33618164 C-138.86246338 41.76456299 -138.86246338 41.76456299 -137.93408203 41.18139648 C-133.59749855 38.47664989 -129.20579585 35.8788296 -124.77246094 33.33618164 C-124.14210937 32.97169922 -123.51175781 32.6072168 -122.86230469 32.23168945 C-101.15745785 19.81169376 -77.13670458 11.32545563 -52.83496094 5.64868164 C-51.62223511 5.36287231 -51.62223511 5.36287231 -50.38500977 5.07128906 C-47.52281534 4.43472102 -44.65482489 3.87484387 -41.77246094 3.33618164 C-41.10059753 3.20843353 -40.42873413 3.08068542 -39.73651123 2.94906616 C-26.45966336 0.49074726 -13.48558626 -0.10538812 0 0 Z " fill="#033243" transform="translate(366.7724609375,103.663818359375)"/>
<path d="M0 0 C1.05098373 0.00090637 1.05098373 0.00090637 2.12319946 0.00183105 C12.9523077 0.02709132 23.55165117 0.42408989 34.25 2.1875 C35.02150391 2.30577148 35.79300781 2.42404297 36.58789062 2.54589844 C75.23508011 8.57780688 113.86206914 23.69083505 145.25 47.1875 C145.82105469 47.60596191 146.39210938 48.02442383 146.98046875 48.45556641 C154.2451526 53.78147737 160.9857446 59.51064031 167.546875 65.671875 C169.75616012 67.72791491 171.99998383 69.68850272 174.3125 71.625 C192.43420151 87.42532652 206.35259517 108.53213293 218.25 129.1875 C219.23613281 130.87359375 219.23613281 130.87359375 220.2421875 132.59375 C229.40707745 148.93596341 236.45968116 167.08322349 241.25 185.1875 C241.45963379 185.9702832 241.66926758 186.75306641 241.88525391 187.55957031 C246.36335518 204.66374875 249.25 222.47852841 249.25 240.1875 C227.8 240.1875 206.35 240.1875 184.25 240.1875 C183.59 234.5775 182.93 228.9675 182.25 223.1875 C181.69680393 219.80309958 181.13014297 216.47613788 180.4375 213.125 C180.26718262 212.29266846 180.09686523 211.46033691 179.92138672 210.6027832 C174.6546982 185.78866884 164.22537789 161.69482719 149.25 141.1875 C148.87359375 140.66446289 148.4971875 140.14142578 148.109375 139.60253906 C123.30650528 105.4381966 88.20729204 83.98441479 48.25 72.1875 C47.33089844 71.90003906 46.41179687 71.61257812 45.46484375 71.31640625 C30.12462372 66.74042098 14.35579372 65.63108264 -1.5625 65.75 C-2.43363434 65.75304138 -3.30476868 65.75608276 -4.20230103 65.75921631 C-17.75626898 65.82898063 -30.59504274 66.7193749 -43.75 70.1875 C-44.60432617 70.39648926 -45.45865234 70.60547852 -46.33886719 70.82080078 C-80.95244453 79.32450445 -110.69836813 97.01752561 -135.75 122.1875 C-136.59949219 123.03699219 -137.44898438 123.88648438 -138.32421875 124.76171875 C-153.82744423 141.15561427 -165.21252325 161.46242865 -173.75 182.1875 C-174.16121094 183.17363281 -174.57242188 184.15976562 -174.99609375 185.17578125 C-177.91781009 192.66765311 -179.62163457 200.47269574 -181.3359375 208.31054688 C-181.66661917 209.80953311 -182.01744225 211.30407141 -182.375 212.796875 C-184.42702995 221.83863197 -184.81980301 230.88553009 -185.75 240.1875 C-207.2 240.1875 -228.65 240.1875 -250.75 240.1875 C-250.75 229.96797466 -250.65112783 220.95789037 -249 211.0625 C-248.72820923 209.37459351 -248.72820923 209.37459351 -248.45092773 207.65258789 C-247.10316784 199.58993948 -245.26270076 191.96846554 -242.75 184.1875 C-242.38339561 182.88576933 -242.02305134 181.58226438 -241.66796875 180.27734375 C-234.5086016 154.17950517 -222.65916211 129.0982857 -206.75 107.1875 C-206.29834473 106.55086426 -205.84668945 105.91422852 -205.38134766 105.25830078 C-198.44551971 95.49773386 -190.88643731 86.58981947 -182.53222656 78.01660156 C-180.75801167 76.19572238 -179.00018486 74.35996071 -177.2421875 72.5234375 C-170.13523355 65.1780285 -162.71612866 58.60858743 -154.51660156 52.50976562 C-152.75178942 51.18883935 -151.01193514 49.83968163 -149.2734375 48.484375 C-106.85400245 15.85404034 -53.08769382 -0.08546577 0 0 Z " fill="#AD2134" transform="translate(374.75,123.8125)"/>
<path d="M0 0 C0.78687195 0.00432037 1.5737439 0.00864075 2.38446045 0.01309204 C13.86277129 0.08690427 24.88648096 0.55846294 36.0625 3.375 C36.78953125 3.55192383 37.5165625 3.72884766 38.265625 3.91113281 C83.29504825 14.99618216 119.50014544 41.25811758 143.75 80.75 C156.84288941 102.6922111 165.0625 128.83426175 165.0625 154.375 C56.8225 154.375 -51.4175 154.375 -162.9375 154.375 C-162.9375 145.58306209 -162.79027883 138.66991211 -160.9375 130.375 C-160.69257813 129.13363281 -160.44765625 127.89226562 -160.1953125 126.61328125 C-151.67696804 85.25395834 -125.22697878 50.16296328 -90.9375 26.375 C-73.82593682 15.34688222 -54.84871603 7.53002291 -34.9375 3.375 C-33.70346436 3.11460937 -32.46942871 2.85421875 -31.19799805 2.5859375 C-20.74180216 0.495686 -10.64518263 -0.1115619 0 0 Z " fill="#FEFEFE" transform="translate(372.9375,209.625)"/>
<path d="M0 0 C1.05098373 0.00090637 1.05098373 0.00090637 2.12319946 0.00183105 C12.9523077 0.02709132 23.55165117 0.42408989 34.25 2.1875 C35.02150391 2.30577148 35.79300781 2.42404297 36.58789062 2.54589844 C75.23508011 8.57780688 113.86206914 23.69083505 145.25 47.1875 C145.82105469 47.60596191 146.39210938 48.02442383 146.98046875 48.45556641 C154.2451526 53.78147737 160.9857446 59.51064031 167.546875 65.671875 C169.75616012 67.72791491 171.99998383 69.68850272 174.3125 71.625 C192.43420151 87.42532652 206.35259517 108.53213293 218.25 129.1875 C219.23613281 130.87359375 219.23613281 130.87359375 220.2421875 132.59375 C229.40707745 148.93596341 236.45968116 167.08322349 241.25 185.1875 C241.45963379 185.9702832 241.66926758 186.75306641 241.88525391 187.55957031 C246.36335518 204.66374875 249.25 222.47852841 249.25 240.1875 C241.99 240.1875 234.73 240.1875 227.25 240.1875 C227.11464844 238.65867187 226.97929688 237.12984375 226.83984375 235.5546875 C222.45377801 190.35712004 207.75559535 146.94812954 179.25 111.1875 C178.55648438 110.30191406 177.86296875 109.41632813 177.1484375 108.50390625 C168.7409061 97.97156237 159.67741835 87.75715991 149.25 79.1875 C148.45335937 78.47980469 147.65671875 77.77210938 146.8359375 77.04296875 C116.14681146 50.28723774 77.26584749 32.85680791 37.25 26.1875 C35.88101563 25.89746094 35.88101563 25.89746094 34.484375 25.6015625 C26.41576238 23.89378866 18.27714532 23.53509048 10.05810547 23.27978516 C8.14780058 23.21700518 6.23790431 23.14064215 4.32861328 23.05224609 C-32.29296275 21.43650192 -68.9979982 29.88154188 -101.75 46.1875 C-102.49572266 46.55488281 -103.24144531 46.92226562 -104.00976562 47.30078125 C-124.75921942 57.61174776 -143.05176581 71.1814484 -159.75 87.1875 C-160.27980469 87.69007324 -160.80960937 88.19264648 -161.35546875 88.71044922 C-202.63243632 128.03877135 -225.92387889 183.66507787 -228.75 240.1875 C-236.01 240.1875 -243.27 240.1875 -250.75 240.1875 C-251.49527951 221.18287262 -248.59216419 202.27866271 -242.75 184.1875 C-242.38339561 182.88576933 -242.02305134 181.58226438 -241.66796875 180.27734375 C-234.5086016 154.17950517 -222.65916211 129.0982857 -206.75 107.1875 C-206.29834473 106.55086426 -205.84668945 105.91422852 -205.38134766 105.25830078 C-198.44551971 95.49773386 -190.88643731 86.58981947 -182.53222656 78.01660156 C-180.75801167 76.19572238 -179.00018486 74.35996071 -177.2421875 72.5234375 C-170.13523355 65.1780285 -162.71612866 58.60858743 -154.51660156 52.50976562 C-152.75178942 51.18883935 -151.01193514 49.83968163 -149.2734375 48.484375 C-106.85400245 15.85404034 -53.08769382 -0.08546577 0 0 Z " fill="#FCFCFC" transform="translate(374.75,123.8125)"/>
<path d="M0 0 C1.15986923 -0.00060425 1.15986923 -0.00060425 2.34317017 -0.0012207 C33.34047353 0.09066188 63.0231898 7.01847993 91 20.4375 C92.74216797 21.24960938 92.74216797 21.24960938 94.51953125 22.078125 C107.64425408 28.38270567 119.90649557 35.98877383 131 45.4375 C132.00289063 46.25734375 133.00578125 47.0771875 134.0390625 47.921875 C146.93101162 58.50995446 158.04994329 70.05239366 168 83.4375 C168.4237793 83.99518066 168.84755859 84.55286133 169.28417969 85.12744141 C184.40235942 105.03904862 195.98760967 128.14744306 202 152.4375 C202.21640137 153.30165527 202.43280273 154.16581055 202.65576172 155.05615234 C206.12905088 169.11045376 209 182.90391682 209 197.4375 C201.74 197.4375 194.48 197.4375 187 197.4375 C186.62875 193.84875 186.62875 193.84875 186.25 190.1875 C182.50652481 157.28432334 171.64898553 125.34487944 152 98.4375 C151.62359375 97.91446289 151.2471875 97.39142578 150.859375 96.85253906 C126.05650528 62.6881966 90.95729204 41.23441479 51 29.4375 C50.08089844 29.15003906 49.16179687 28.86257812 48.21484375 28.56640625 C32.87462372 23.99042098 17.10579372 22.88108264 1.1875 23 C0.31636566 23.00304138 -0.55476868 23.00608276 -1.45230103 23.00921631 C-15.00626898 23.07898063 -27.84504274 23.9693749 -41 27.4375 C-41.85432617 27.64648926 -42.70865234 27.85547852 -43.58886719 28.07080078 C-78.20244453 36.57450445 -107.94836813 54.26752561 -133 79.4375 C-133.84949219 80.28699219 -134.69898438 81.13648438 -135.57421875 82.01171875 C-151.07744423 98.40561427 -162.46252325 118.71242865 -171 139.4375 C-171.41121094 140.42363281 -171.82242188 141.40976562 -172.24609375 142.42578125 C-175.16781009 149.91765311 -176.87163457 157.72269574 -178.5859375 165.56054688 C-178.91661917 167.05953311 -179.26744225 168.55407141 -179.625 170.046875 C-180.55878656 174.16137202 -181.13193078 178.29384622 -181.5625 182.48828125 C-181.64886719 183.31884033 -181.73523438 184.14939941 -181.82421875 185.00512695 C-182.23176524 189.1477444 -182.61317036 193.29289673 -183 197.4375 C-190.26 197.4375 -197.52 197.4375 -205 197.4375 C-206.84654442 151.27388954 -184.15001425 104.25990591 -154 70.4375 C-153.54625 69.92203613 -153.0925 69.40657227 -152.625 68.87548828 C-114.46533233 25.6070867 -57.67111682 -0.03121196 0 0 Z " fill="#FEFCFC" transform="translate(372,166.5625)"/>
<path d="M0 0 C0.83850494 -0.00626404 1.67700989 -0.01252808 2.54092407 -0.01898193 C18.5117199 -0.09437207 34.17242272 1.57448748 49.5 6.25 C50.80759277 6.63792725 50.80759277 6.63792725 52.14160156 7.03369141 C81.45814897 15.89521095 107.04997709 29.71344652 129.3125 51.00488281 C130.30731208 51.95500607 131.3072883 52.8997534 132.3125 53.83886719 C161.14110944 80.80938266 179.32374323 119.59857984 184.8125 158.4375 C184.99167969 159.41332031 185.17085937 160.38914062 185.35546875 161.39453125 C186.06151469 166.0954696 185.87041992 170.68806649 185.8125 175.4375 C178.8825 175.4375 171.9525 175.4375 164.8125 175.4375 C164.420625 172.22 164.02875 169.0025 163.625 165.6875 C158.19835895 124.59436819 138.64013534 84.3916443 105.5078125 58.48046875 C104.17363281 57.46919922 104.17363281 57.46919922 102.8125 56.4375 C101.96429688 55.77363281 101.11609375 55.10976562 100.2421875 54.42578125 C71.59829563 32.66497385 36.20376748 21.99810313 0.5 22 C-0.28175598 21.99826782 -1.06351196 21.99653564 -1.86895752 21.99475098 C-16.11525424 22.00852357 -29.3854493 23.81490732 -43.1875 27.4375 C-44.52151111 27.75394559 -45.85608088 28.06805324 -47.19140625 28.37890625 C-74.94865662 35.42084804 -99.43566287 52.15182944 -119.1875 72.4375 C-119.69917725 72.92726318 -120.21085449 73.41702637 -120.73803711 73.92163086 C-125.05165961 78.08888415 -128.64921408 82.45076465 -132.0625 87.375 C-132.83339966 88.48198242 -132.83339966 88.48198242 -133.61987305 89.61132812 C-144.14416729 104.95387546 -152.37037995 121.41482672 -157.1875 139.4375 C-157.51492187 140.49324219 -157.84234375 141.54898438 -158.1796875 142.63671875 C-161.41169918 153.5477071 -162.29811554 164.09784812 -163.1875 175.4375 C-170.1175 175.4375 -177.0475 175.4375 -184.1875 175.4375 C-184.5988699 160.83386842 -182.63646374 147.3547712 -178.1875 133.4375 C-177.86652344 132.33664062 -177.54554688 131.23578125 -177.21484375 130.1015625 C-168.48386688 100.33847536 -151.79437287 74.44626616 -130.1875 52.4375 C-129.69443359 51.9336377 -129.20136719 51.42977539 -128.69335938 50.91064453 C-105.21995862 27.27572955 -74.19748068 12.36843784 -42.1875 4.4375 C-40.98673828 4.11990723 -40.98673828 4.11990723 -39.76171875 3.79589844 C-26.60594503 0.39929729 -13.50778243 0.04715957 0 0 Z " fill="#FE7918" transform="translate(373.1875,188.5625)"/>
<path d="M0 0 C6.93 0 13.86 0 21 0 C21 11.27833828 21 11.27833828 20.30078125 15.99609375 C20.14633545 17.03942871 19.99188965 18.08276367 19.83276367 19.15771484 C19.66107666 20.24004395 19.48938965 21.32237305 19.3125 22.4375 C19.13243408 23.57912598 18.95236816 24.72075195 18.7668457 25.89697266 C11.63057622 69.37304073 -7.76837199 110.32432951 -37.80859375 142.62109375 C-39.57315132 144.53662951 -41.24507608 146.47131794 -42.875 148.5 C-46.25079098 152.4715188 -47.63452664 153.82660656 -52.9375 154.5 C-56.49002984 154.38732648 -56.99605669 154.00327211 -59.9375 151.5625 C-60.618125 150.716875 -61.29875 149.87125 -62 149 C-62.33 148.67 -62.66 148.34 -63 148 C-63.73358913 143.37838848 -64.07851104 140.57228718 -61.37890625 136.63671875 C-58.98127249 134.02539214 -56.49584783 131.51751944 -54 129 C-21.02435647 92.64041888 -5.3777066 48.15491822 0 0 Z " fill="#AD2134" transform="translate(581,385)"/>
</svg>
