<?xml version="1.0" encoding="UTF-8"?>
<svg version="1.1" xmlns="http://www.w3.org/2000/svg" width="2363" height="1063">
<path d="M0 0 C779.79 0 1559.58 0 2363 0 C2363 350.79 2363 701.58 2363 1063 C1583.21 1063 803.42 1063 0 1063 C0 712.21 0 361.42 0 0 Z " fill="#FEFEFE" transform="translate(0,0)"/>
<path d="M0 0 C3.22453866 0.02365963 6.44824735 0.02052181 9.67285156 0.01391602 C25.96297167 0.03567773 42.26669861 0.81136982 58.29003906 3.96118164 C59.13107178 4.12521484 59.97210449 4.28924805 60.83862305 4.45825195 C79.86956659 8.38655517 98.46305096 14.49439334 116.22753906 22.33618164 C117.06945801 22.70437012 117.91137695 23.07255859 118.77880859 23.4519043 C143.14741514 34.22918621 165.23397879 48.79258351 185.22753906 66.33618164 C186.06671875 67.06321289 186.90589844 67.79024414 187.77050781 68.53930664 C198.83244087 78.28391325 209.20061035 88.66883503 218.22753906 100.33618164 C219.02546875 101.34036133 219.82339844 102.34454102 220.64550781 103.37915039 C249.19555969 139.52845614 267.96792445 182.62611509 275.54003906 228.02368164 C275.77932129 229.427229 275.77932129 229.427229 276.0234375 230.85913086 C277.04597924 237.47856497 277.46786852 244.06667949 277.77514648 250.74951172 C277.81940514 251.6735807 277.86366379 252.59764969 277.90926361 253.54972076 C278.01732491 255.81178866 278.12336645 258.07393189 278.22753906 260.33618164 C279.25626633 260.32951981 280.28499359 260.32285797 281.34489441 260.31599426 C291.04124226 260.25517045 300.73755138 260.21020288 310.43404675 260.18074512 C315.41908407 260.16509146 320.40396735 260.14385853 325.38891602 260.10986328 C330.19997484 260.07725934 335.0108855 260.05932638 339.82204628 260.05154991 C341.65726364 260.04600827 343.49247292 260.03518681 345.32762718 260.01899147 C347.89885332 259.99720339 350.46946783 259.99421528 353.04077148 259.99560547 C354.17797386 259.97942673 354.17797386 259.97942673 355.33815002 259.96292114 C359.81859899 259.98912091 362.68382758 260.54220722 366.22753906 263.33618164 C368.89590317 267.3387278 369.06156287 270.62931463 368.22753906 275.33618164 C366.04594761 278.09187611 364.35576413 279.77206911 361.22753906 281.33618164 C358.60322757 281.4292332 356.0056911 281.46197779 353.38134766 281.44970703 C352.57150925 281.44985306 351.76167084 281.44999908 350.92729187 281.45014954 C348.2434931 281.44945141 345.55976325 281.44166368 342.87597656 281.43383789 C341.01795489 281.43197336 339.15993274 281.43054962 337.3019104 281.42955017 C332.40611418 281.42572779 327.51034751 281.41589987 322.61456299 281.40484619 C317.62097575 281.39462608 312.62738374 281.39005126 307.63378906 281.38500977 C297.83169273 281.37427737 288.02961835 281.35720428 278.22753906 281.33618164 C278.16418869 282.55856033 278.10083832 283.78093903 278.03556824 285.0403595 C277.94886695 286.66737422 277.86205376 288.29438298 277.77514648 289.92138672 C277.73383354 290.7242939 277.6925206 291.52720108 277.64995575 292.35443878 C277.2929538 298.97124704 276.5843891 305.47817427 275.54003906 312.02368164 C275.36561279 313.12325195 275.19118652 314.22282227 275.01147461 315.35571289 C273.14734357 326.56465633 270.51337798 337.4627795 267.22753906 348.33618164 C266.92251465 349.34583984 266.61749023 350.35549805 266.30322266 351.39575195 C256.68916198 382.46847346 241.79706311 412.06097792 221.22753906 437.33618164 C220.5765625 438.17793945 219.92558594 439.01969727 219.25488281 439.88696289 C207.11267237 455.51974718 192.84841703 470.19390255 177.22753906 482.33618164 C176.24527344 483.12379883 175.26300781 483.91141602 174.25097656 484.72290039 C146.2322393 507.00843069 114.2650459 521.79993674 80.22753906 532.33618164 C79.51114258 532.5653125 78.79474609 532.79444336 78.05664062 533.03051758 C73.82738301 534.37526276 69.56760718 535.42730523 65.22753906 536.33618164 C63.74036377 536.65329102 63.74036377 536.65329102 62.22314453 536.97680664 C47.1669458 540.08518315 32.5144194 541.83930367 17.16503906 541.96118164 C16.44890442 541.97403198 15.73276978 541.98688232 14.99493408 542.00012207 C12.95679382 542.02939201 10.91817482 542.01567632 8.87988281 542.00024414 C7.71448975 541.99460449 6.54909668 541.98896484 5.34838867 541.9831543 C1.28617468 541.14103061 -0.20369105 539.52928305 -2.77246094 536.33618164 C-3.83496094 532.89868164 -3.83496094 532.89868164 -3.77246094 529.33618164 C-1.79307627 525.58948923 -0.3023004 523.68940795 3.22753906 521.33618164 C6.0612793 521.00488281 6.0612793 521.00488281 9.53613281 520.87915039 C10.82624268 520.82162598 12.11635254 520.76410156 13.44555664 520.70483398 C14.47611679 520.66190216 14.47611679 520.66190216 15.52749634 520.61810303 C64.45427483 518.45686703 113.77442174 502.87035779 153.22753906 473.33618164 C154.08412109 472.70848877 154.08412109 472.70848877 154.95800781 472.06811523 C162.2196543 466.74443104 168.95775023 461.0177795 175.51660156 454.85961914 C177.77009082 452.76199081 180.0609407 450.75559054 182.41503906 448.77368164 C210.91223823 423.89702827 230.1545013 387.6740161 242.97753906 352.71118164 C243.34258545 351.72279297 243.70763184 350.7344043 244.08374023 349.71606445 C249.09126749 335.70646013 251.88102755 321.58695244 253.91503906 306.89868164 C254.12850186 305.40964453 254.34269296 303.92071164 254.55761719 302.43188477 C255.56232797 295.40716014 256.44358599 288.39175932 257.22753906 281.33618164 C249.96753906 281.33618164 242.70753906 281.33618164 235.22753906 281.33618164 C235.22753906 284.63618164 235.22753906 287.93618164 235.22753906 291.33618164 C235.04840078 293.34043358 234.82333219 295.34177688 234.52832031 297.33227539 C234.37387451 298.37561035 234.21942871 299.41894531 234.06030273 300.49389648 C233.88861572 301.57622559 233.71692871 302.65855469 233.54003906 303.77368164 C233.35997314 304.91530762 233.17990723 306.05693359 232.99438477 307.2331543 C225.85811528 350.70922237 206.45916707 391.66051115 176.41894531 423.95727539 C174.65438774 425.87281115 172.98246298 427.80749958 171.35253906 429.83618164 C167.97674808 433.80770045 166.59301242 435.1627882 161.29003906 435.83618164 C157.73750923 435.72350812 157.23148237 435.33945375 154.29003906 432.89868164 C153.60941406 432.05305664 152.92878906 431.20743164 152.22753906 430.33618164 C151.89753906 430.00618164 151.56753906 429.67618164 151.22753906 429.33618164 C150.49394993 424.71457012 150.14902803 421.90846882 152.84863281 417.97290039 C155.24626657 415.36157378 157.73169124 412.85370108 160.22753906 410.33618164 C189.89417633 377.62517471 207.54756977 336.46895972 212.82910156 292.78540039 C212.96485596 291.68047241 213.10061035 290.57554443 213.24047852 289.43713379 C213.57186988 286.73709712 213.90083547 284.03678884 214.22753906 281.33618164 C213.04064244 281.33808024 211.85374581 281.33997884 210.63088262 281.34193498 C158.33512663 281.42526067 106.03936482 281.5024022 53.74356079 281.54789734 C52.95211663 281.54858762 52.16067248 281.54927791 51.34524517 281.54998911 C34.145996 281.56495284 16.94674611 281.57880386 -0.25250486 281.59150829 C-8.68672866 281.5977451 -17.12095227 281.60422785 -25.55517578 281.61083984 C-26.81415134 281.61182054 -26.81415134 281.61182054 -28.09856075 281.61282104 C-55.31466672 281.63413664 -82.53072086 281.67169978 -109.74679542 281.71766774 C-137.70941329 281.76481096 -165.67200247 281.79560427 -193.63465942 281.80575659 C-197.58207623 281.80719741 -201.52949295 281.8088256 -205.47690964 281.81056786 C-206.64229869 281.81107353 -206.64229869 281.81107353 -207.83123095 281.81158942 C-220.34936084 281.81750337 -232.86740215 281.84070806 -245.38549589 281.87034181 C-257.96330732 281.89974927 -270.54103072 281.91102878 -283.11887534 281.90368853 C-289.93676087 281.9002149 -296.75440853 281.90485319 -303.57224655 281.93220901 C-309.80862479 281.9564512 -316.04456605 281.95782769 -322.28096394 281.94067612 C-324.54216813 281.93855475 -326.80339903 281.94497327 -329.06455024 281.96059755 C-332.12931114 281.9805506 -335.19247728 281.96991977 -338.25721169 281.95142078 C-339.58603177 281.97112339 -339.58603177 281.97112339 -340.9416967 281.99122402 C-345.19473328 281.93287804 -347.93144404 281.64328101 -351.30466402 278.92272919 C-354.16889421 275.92067196 -354.67593429 275.17274588 -355.14746094 271.08618164 C-354.65318798 266.14345206 -353.23417793 264.79789863 -349.77246094 261.33618164 C-346.63248425 259.7661933 -343.28069733 260.20673619 -339.83447266 260.22265625 C-339.01488068 260.22251022 -338.1952887 260.2223642 -337.3508606 260.22221375 C-334.63459653 260.2229119 -331.91840056 260.23069976 -329.20214844 260.23852539 C-327.32170652 260.24038992 -325.44126411 260.24181366 -323.56082153 260.24281311 C-318.60584172 260.24663557 -313.65089111 260.25646356 -308.69592285 260.26751709 C-303.64201248 260.27773703 -298.58809741 260.28231198 -293.53417969 260.28735352 C-283.61359392 260.29808605 -273.69302986 260.31515924 -263.77246094 260.33618164 C-263.77803513 259.39335327 -263.78360931 258.4505249 -263.78935242 257.47912598 C-263.79585564 255.60915955 -263.79585564 255.60915955 -263.80249023 253.70141602 C-263.80806442 252.46983765 -263.81363861 251.23825928 -263.81938171 249.96936035 C-263.75352374 244.86983274 -263.25107894 239.88797219 -262.58496094 234.83618164 C-262.38205444 233.29244873 -262.38205444 233.29244873 -262.17504883 231.7175293 C-257.06734155 194.87088473 -243.77173983 158.70227242 -223.77246094 127.33618164 C-223.12019531 126.30106445 -222.46792969 125.26594727 -221.79589844 124.19946289 C-213.76226098 111.81840434 -204.82822915 100.13392886 -194.77246094 89.33618164 C-193.60104639 87.98612 -192.43416674 86.6321065 -191.27246094 85.27368164 C-184.98041681 78.06616689 -178.10449653 71.47328106 -170.77246094 65.33618164 C-170.22203125 64.87195801 -169.67160156 64.40773438 -169.10449219 63.92944336 C-159.7306419 56.05157704 -150.15084765 48.83602636 -139.77246094 42.33618164 C-138.86246338 41.76456299 -138.86246338 41.76456299 -137.93408203 41.18139648 C-133.59749855 38.47664989 -129.20579585 35.8788296 -124.77246094 33.33618164 C-124.14210938 32.97169922 -123.51175781 32.6072168 -122.86230469 32.23168945 C-101.15745785 19.81169376 -77.13670458 11.32545563 -52.83496094 5.64868164 C-51.62223511 5.36287231 -51.62223511 5.36287231 -50.38500977 5.07128906 C-47.52281534 4.43472102 -44.65482489 3.87484387 -41.77246094 3.33618164 C-41.10059753 3.20843353 -40.42873413 3.08068542 -39.73651123 2.94906616 C-26.45966336 0.49074726 -13.48558626 -0.10538812 0 0 Z " fill="#033243" transform="translate(606.7724609375,260.663818359375)"/>
<path d="M0 0 C1.05098373 0.00090637 1.05098373 0.00090637 2.12319946 0.00183105 C12.9523077 0.02709132 23.55165117 0.42408989 34.25 2.1875 C35.02150391 2.30577148 35.79300781 2.42404297 36.58789062 2.54589844 C75.23508011 8.57780688 113.86206914 23.69083505 145.25 47.1875 C145.82105469 47.60596191 146.39210938 48.02442383 146.98046875 48.45556641 C154.2451526 53.78147737 160.9857446 59.51064031 167.546875 65.671875 C169.75616012 67.72791491 171.99998383 69.68850272 174.3125 71.625 C192.43420151 87.42532652 206.35259517 108.53213293 218.25 129.1875 C219.23613281 130.87359375 219.23613281 130.87359375 220.2421875 132.59375 C229.40707745 148.93596341 236.45968116 167.08322349 241.25 185.1875 C241.45963379 185.9702832 241.66926758 186.75306641 241.88525391 187.55957031 C246.36335518 204.66374875 249.25 222.47852841 249.25 240.1875 C227.8 240.1875 206.35 240.1875 184.25 240.1875 C183.59 234.5775 182.93 228.9675 182.25 223.1875 C181.69680393 219.80309958 181.13014297 216.47613788 180.4375 213.125 C180.26718262 212.29266846 180.09686523 211.46033691 179.92138672 210.6027832 C174.6546982 185.78866884 164.22537789 161.69482719 149.25 141.1875 C148.87359375 140.66446289 148.4971875 140.14142578 148.109375 139.60253906 C123.30650528 105.4381966 88.20729204 83.98441479 48.25 72.1875 C47.33089844 71.90003906 46.41179687 71.61257813 45.46484375 71.31640625 C30.12462372 66.74042098 14.35579372 65.63108264 -1.5625 65.75 C-2.43363434 65.75304138 -3.30476868 65.75608276 -4.20230103 65.75921631 C-17.75626898 65.82898063 -30.59504274 66.7193749 -43.75 70.1875 C-44.60432617 70.39648926 -45.45865234 70.60547852 -46.33886719 70.82080078 C-80.95244453 79.32450445 -110.69836813 97.01752561 -135.75 122.1875 C-136.59949219 123.03699219 -137.44898438 123.88648438 -138.32421875 124.76171875 C-153.82744423 141.15561427 -165.21252325 161.46242865 -173.75 182.1875 C-174.16121094 183.17363281 -174.57242188 184.15976562 -174.99609375 185.17578125 C-177.91781009 192.66765311 -179.62163457 200.47269574 -181.3359375 208.31054688 C-181.66661917 209.80953311 -182.01744225 211.30407141 -182.375 212.796875 C-184.42702995 221.83863197 -184.81980301 230.88553009 -185.75 240.1875 C-207.2 240.1875 -228.65 240.1875 -250.75 240.1875 C-250.75 221.5760528 -250.75 221.5760528 -249.5 213.75 C-249.36215088 212.85788818 -249.22430176 211.96577637 -249.08227539 211.04663086 C-248.66208251 208.4221244 -248.2148768 205.80443134 -247.75 203.1875 C-247.6267334 202.49140625 -247.5034668 201.7953125 -247.37646484 201.078125 C-238.79151673 155.107854 -215.02200019 111.35810055 -182.53222656 78.01660156 C-180.75801167 76.19572238 -179.00018486 74.35996071 -177.2421875 72.5234375 C-170.13523355 65.1780285 -162.71612866 58.60858743 -154.51660156 52.50976562 C-152.75178942 51.18883935 -151.01193514 49.83968163 -149.2734375 48.484375 C-106.85400245 15.85404034 -53.08769382 -0.08546577 0 0 Z " fill="#AD2134" transform="translate(614.75,280.8125)"/>
<path d="M0 0 C0.78687195 0.00432037 1.5737439 0.00864075 2.38446045 0.01309204 C13.86277129 0.08690427 24.88648096 0.55846294 36.0625 3.375 C36.78953125 3.55192383 37.5165625 3.72884766 38.265625 3.91113281 C83.29504825 14.99618216 119.50014544 41.25811758 143.75 80.75 C156.84288941 102.6922111 165.0625 128.83426175 165.0625 154.375 C56.8225 154.375 -51.4175 154.375 -162.9375 154.375 C-162.9375 145.58306209 -162.79027883 138.66991211 -160.9375 130.375 C-160.69257813 129.13363281 -160.44765625 127.89226562 -160.1953125 126.61328125 C-151.67696804 85.25395834 -125.22697878 50.16296328 -90.9375 26.375 C-73.82593682 15.34688222 -54.84871603 7.53002291 -34.9375 3.375 C-33.70346436 3.11460937 -32.46942871 2.85421875 -31.19799805 2.5859375 C-20.74180216 0.495686 -10.64518263 -0.1115619 0 0 Z " fill="#FEFEFE" transform="translate(612.9375,366.625)"/>
<path d="M0 0 C1.05098373 0.00090637 1.05098373 0.00090637 2.12319946 0.00183105 C12.9523077 0.02709132 23.55165117 0.42408989 34.25 2.1875 C35.02150391 2.30577148 35.79300781 2.42404297 36.58789062 2.54589844 C75.23508011 8.57780688 113.86206914 23.69083505 145.25 47.1875 C145.82105469 47.60596191 146.39210938 48.02442383 146.98046875 48.45556641 C154.2451526 53.78147737 160.9857446 59.51064031 167.546875 65.671875 C169.75616012 67.72791491 171.99998383 69.68850272 174.3125 71.625 C192.43420151 87.42532652 206.35259517 108.53213293 218.25 129.1875 C219.23613281 130.87359375 219.23613281 130.87359375 220.2421875 132.59375 C229.40707745 148.93596341 236.45968116 167.08322349 241.25 185.1875 C241.45963379 185.9702832 241.66926758 186.75306641 241.88525391 187.55957031 C246.36335518 204.66374875 249.25 222.47852841 249.25 240.1875 C241.99 240.1875 234.73 240.1875 227.25 240.1875 C227.11464844 238.65867187 226.97929688 237.12984375 226.83984375 235.5546875 C222.45377801 190.35712004 207.75559535 146.94812954 179.25 111.1875 C178.55648438 110.30191406 177.86296875 109.41632813 177.1484375 108.50390625 C168.7409061 97.97156237 159.67741835 87.75715991 149.25 79.1875 C148.45335937 78.47980469 147.65671875 77.77210938 146.8359375 77.04296875 C116.14681146 50.28723774 77.26584749 32.85680791 37.25 26.1875 C35.88101563 25.89746094 35.88101563 25.89746094 34.484375 25.6015625 C26.41576238 23.89378866 18.27714532 23.53509048 10.05810547 23.27978516 C8.14780058 23.21700518 6.23790431 23.14064215 4.32861328 23.05224609 C-32.29296275 21.43650192 -68.9979982 29.88154188 -101.75 46.1875 C-102.49572266 46.55488281 -103.24144531 46.92226563 -104.00976562 47.30078125 C-124.75921942 57.61174776 -143.05176581 71.1814484 -159.75 87.1875 C-160.27980469 87.69007324 -160.80960937 88.19264648 -161.35546875 88.71044922 C-202.63243632 128.03877135 -225.92387889 183.66507787 -228.75 240.1875 C-236.01 240.1875 -243.27 240.1875 -250.75 240.1875 C-251.10459465 227.54029091 -249.96204502 215.63976675 -247.75 203.1875 C-247.6267334 202.49140625 -247.5034668 201.7953125 -247.37646484 201.078125 C-238.79151673 155.107854 -215.02200019 111.35810055 -182.53222656 78.01660156 C-180.75801167 76.19572238 -179.00018486 74.35996071 -177.2421875 72.5234375 C-170.13523355 65.1780285 -162.71612866 58.60858743 -154.51660156 52.50976562 C-152.75178942 51.18883935 -151.01193514 49.83968163 -149.2734375 48.484375 C-106.85400245 15.85404034 -53.08769382 -0.08546577 0 0 Z " fill="#FCFCFC" transform="translate(614.75,280.8125)"/>
<path d="M0 0 C1.14764832 -0.01248528 1.14764832 -0.01248528 2.31848145 -0.02522278 C4.8350949 -0.04921665 7.35144853 -0.05808248 9.86816406 -0.06469727 C11.62925286 -0.07367278 13.39034091 -0.08279479 15.15142822 -0.09205627 C18.83990323 -0.1085208 22.52828776 -0.11624156 26.21679688 -0.11914062 C30.92197735 -0.12451693 35.6262963 -0.16217647 40.33123398 -0.20788479 C43.96888258 -0.237765 47.60632662 -0.24486658 51.24408722 -0.24586678 C52.97750029 -0.25004857 54.71091514 -0.2624001 56.44420624 -0.28338432 C67.57660382 -0.40741764 76.04378248 0.29905774 84.94628906 7.61889648 C90.19750998 14.07039646 93.28174663 19.20586389 93.29492188 27.55078125 C93.30236923 28.67070213 93.30236923 28.67070213 93.30996704 29.81324768 C93.32460855 32.29144201 93.33139641 34.76957219 93.33691406 37.24780273 C93.34266695 38.9721629 93.34842467 40.69652305 93.35418701 42.42088318 C93.36470475 46.04328713 93.37054134 49.66566886 93.37402344 53.28808594 C93.37948861 57.91252968 93.4034707 62.53667607 93.43199539 67.16102695 C93.45069942 70.72742035 93.45583164 74.29374352 93.45735931 77.86018181 C93.46037241 79.56369579 93.4683552 81.26720893 93.48154449 82.97067451 C93.63568594 104.42257123 93.63568594 104.42257123 86.13378906 113.30639648 C79.16505612 118.75848211 73.29311881 121.60822638 64.36523438 121.59692383 C63.21539566 121.60699966 63.21539566 121.60699966 62.04232788 121.61727905 C59.51545676 121.63623035 56.98885178 121.64018211 54.46191406 121.64233398 C52.69700005 121.6487651 50.93208709 121.65549369 49.16717529 121.6625061 C45.46852143 121.67447255 41.76996091 121.6781877 38.07128906 121.67700195 C33.34928541 121.67679907 28.62788571 121.7040717 23.90602493 121.73854637 C20.25983982 121.76087038 16.61379862 121.76483778 12.96755219 121.7637825 C11.22774937 121.76613132 9.48794215 121.77491402 7.74820709 121.79044724 C-3.02766341 121.87763318 -11.05365171 121.33047595 -20.11621094 115.05639648 C-29.13739045 106.03521697 -30.11860359 96.15382048 -30.144104 83.81932068 C-30.14052396 82.34495921 -30.13642193 80.87059892 -30.13183594 79.39624023 C-30.13318599 77.85885049 -30.13512934 76.32146117 -30.13763428 74.78407288 C-30.14056868 71.5758962 -30.13634187 68.36783154 -30.12695312 65.15966797 C-30.11554989 61.06560078 -30.12213423 56.97179564 -30.13409805 52.877738 C-30.1413541 49.70770829 -30.13901176 46.53773985 -30.13384247 43.36770821 C-30.13251681 41.85875987 -30.1341153 40.34980582 -30.13880157 38.84086418 C-30.16743136 27.03600964 -29.7358555 17.68410068 -21.86621094 8.30639648 C-15.29256957 2.16488692 -8.99307966 0.00840975 0 0 Z " fill="#053445" transform="translate(1772.8662109375,443.693603515625)"/>
<path d="M0 0 C0.75680557 -0.00511093 1.51361115 -0.01022186 2.29335022 -0.01548767 C4.78777038 -0.02935232 7.28191313 -0.02842871 9.77636719 -0.02612305 C11.5188609 -0.03001283 13.26135367 -0.03434808 15.00384521 -0.03910828 C18.65542676 -0.0465646 22.30691163 -0.0462843 25.95849609 -0.04101562 C30.61987162 -0.03523392 35.28084812 -0.05212329 39.94215775 -0.0753603 C43.54201543 -0.09015332 47.14177838 -0.09096158 50.74166107 -0.08785057 C52.45912209 -0.08836139 54.17658874 -0.09355381 55.89402008 -0.10366249 C67.53962395 -0.16377708 77.56193455 -0.19181065 86.53027344 8.23950195 C92.43107282 14.93735921 94.44160454 21.4226755 94.46850586 30.1953125 C94.47186447 30.88369705 94.47522308 31.5720816 94.47868347 32.28132629 C94.48816989 34.55386164 94.49013576 36.82632305 94.49121094 39.09887695 C94.49442632 40.68585744 94.4977906 42.27283763 94.501297 43.8598175 C94.50728335 47.18780198 94.50913752 50.51576052 94.50854492 53.84375 C94.5084436 58.08917659 94.52206676 62.33443479 94.53931713 66.57982159 C94.55048981 69.85969288 94.55246248 73.13952424 94.5519352 76.41941261 C94.5531085 77.98336171 94.55749345 79.54731207 94.56526756 81.11124229 C94.61954816 93.16411941 94.5190306 103.64958219 86.32324219 113.2746582 C79.5889231 119.66748038 72.67552367 121.57225352 63.43530273 121.58105469 C62.6798114 121.5893782 61.92432007 121.59770172 61.14593506 121.60627747 C58.66722342 121.63022242 56.1887757 121.63913036 53.70996094 121.64575195 C51.97272163 121.65473 50.23548307 121.66385205 48.49824524 121.67311096 C44.86282479 121.68956136 41.227496 121.69729386 37.59204102 121.70019531 C32.95526565 121.70557534 28.31936295 121.7432564 23.68283367 121.78893948 C20.095799 121.81881967 16.50897176 121.82592124 12.9218235 121.82692146 C11.21352962 121.83110195 9.50523386 121.84344809 7.79706383 121.86443901 C-3.12258382 121.98795201 -11.53527885 121.2903519 -20.29785156 114.1340332 C-21.19697266 113.08989258 -21.19697266 113.08989258 -22.11425781 112.0246582 C-22.73171875 111.33887695 -23.34917969 110.6530957 -23.98535156 109.9465332 C-29.61646915 101.0511881 -29.10407775 91.59644779 -29.04003906 81.48950195 C-29.03951941 79.86243185 -29.04004116 78.23536111 -29.04154968 76.60829163 C-29.04146037 73.21174649 -29.03111427 69.81544073 -29.01293945 66.41894531 C-28.99023569 62.08273023 -28.98971598 57.74686363 -28.9964571 53.41060543 C-28.9998108 50.05527187 -28.99314098 46.70001661 -28.98332787 43.34469795 C-28.97950108 41.74643934 -28.97831709 40.14817199 -28.97991371 38.54990959 C-28.98028785 36.31077575 -28.96756861 34.07207591 -28.95141602 31.83300781 C-28.94680862 30.5633165 -28.94220123 29.29362518 -28.93745422 27.98545837 C-28.30411946 18.970456 -25.47864562 12.52212061 -18.68066406 6.5090332 C-12.60977433 1.78085443 -7.75515972 -0.02719073 0 0 Z " fill="#043244" transform="translate(1235.6767578125,443.725341796875)"/>
<path d="M0 0 C1.15986923 -0.00060425 1.15986923 -0.00060425 2.34317017 -0.0012207 C33.34047353 0.09066188 63.0231898 7.01847993 91 20.4375 C92.74216797 21.24960937 92.74216797 21.24960937 94.51953125 22.078125 C107.64425408 28.38270567 119.90649557 35.98877383 131 45.4375 C132.00289062 46.25734375 133.00578125 47.0771875 134.0390625 47.921875 C146.93101162 58.50995446 158.04994329 70.05239366 168 83.4375 C168.4237793 83.99518066 168.84755859 84.55286133 169.28417969 85.12744141 C184.40235942 105.03904862 195.98760967 128.14744306 202 152.4375 C202.21640137 153.30165527 202.43280273 154.16581055 202.65576172 155.05615234 C206.12905088 169.11045376 209 182.90391682 209 197.4375 C201.74 197.4375 194.48 197.4375 187 197.4375 C186.62875 193.84875 186.62875 193.84875 186.25 190.1875 C182.50652481 157.28432334 171.64898553 125.34487944 152 98.4375 C151.62359375 97.91446289 151.2471875 97.39142578 150.859375 96.85253906 C126.05650528 62.6881966 90.95729204 41.23441479 51 29.4375 C50.08089844 29.15003906 49.16179687 28.86257813 48.21484375 28.56640625 C32.87462372 23.99042098 17.10579372 22.88108264 1.1875 23 C0.31636566 23.00304138 -0.55476868 23.00608276 -1.45230103 23.00921631 C-15.00626898 23.07898063 -27.84504274 23.9693749 -41 27.4375 C-41.85432617 27.64648926 -42.70865234 27.85547852 -43.58886719 28.07080078 C-78.20244453 36.57450445 -107.94836813 54.26752561 -133 79.4375 C-133.84949219 80.28699219 -134.69898438 81.13648438 -135.57421875 82.01171875 C-151.07744423 98.40561427 -162.46252325 118.71242865 -171 139.4375 C-171.41121094 140.42363281 -171.82242188 141.40976562 -172.24609375 142.42578125 C-175.16781009 149.91765311 -176.87163457 157.72269574 -178.5859375 165.56054688 C-178.91661917 167.05953311 -179.26744225 168.55407141 -179.625 170.046875 C-180.55878656 174.16137202 -181.13193078 178.29384622 -181.5625 182.48828125 C-181.64886719 183.31884033 -181.73523438 184.14939941 -181.82421875 185.00512695 C-182.23176524 189.1477444 -182.61317036 193.29289673 -183 197.4375 C-190.26 197.4375 -197.52 197.4375 -205 197.4375 C-206.49438223 151.11165079 -184.33628887 104.46886951 -154 70.4375 C-153.54625 69.92203613 -153.0925 69.40657227 -152.625 68.87548828 C-114.46533233 25.6070867 -57.67111682 -0.03121196 0 0 Z " fill="#FEFCFC" transform="translate(612,323.5625)"/>
<path d="M0 0 C0.83850494 -0.00626404 1.67700989 -0.01252808 2.54092407 -0.01898193 C18.5117199 -0.09437207 34.17242272 1.57448748 49.5 6.25 C50.80759277 6.63792725 50.80759277 6.63792725 52.14160156 7.03369141 C81.45814897 15.89521095 107.04997709 29.71344652 129.3125 51.00488281 C130.30731208 51.95500607 131.3072883 52.8997534 132.3125 53.83886719 C161.14110944 80.80938266 179.32374323 119.59857984 184.8125 158.4375 C184.99167969 159.41332031 185.17085937 160.38914062 185.35546875 161.39453125 C186.06151469 166.0954696 185.87041992 170.68806649 185.8125 175.4375 C178.8825 175.4375 171.9525 175.4375 164.8125 175.4375 C164.420625 172.22 164.02875 169.0025 163.625 165.6875 C158.19835895 124.59436819 138.64013534 84.3916443 105.5078125 58.48046875 C104.17363281 57.46919922 104.17363281 57.46919922 102.8125 56.4375 C101.96429687 55.77363281 101.11609375 55.10976563 100.2421875 54.42578125 C71.59829563 32.66497385 36.20376748 21.99810313 0.5 22 C-0.28175598 21.99826782 -1.06351196 21.99653564 -1.86895752 21.99475098 C-16.11525424 22.00852357 -29.3854493 23.81490732 -43.1875 27.4375 C-44.52151111 27.75394559 -45.85608088 28.06805324 -47.19140625 28.37890625 C-74.94865662 35.42084804 -99.43566287 52.15182944 -119.1875 72.4375 C-119.69917725 72.92726318 -120.21085449 73.41702637 -120.73803711 73.92163086 C-125.05165961 78.08888415 -128.64921408 82.45076465 -132.0625 87.375 C-132.83339966 88.48198242 -132.83339966 88.48198242 -133.61987305 89.61132812 C-144.14416729 104.95387546 -152.37037995 121.41482672 -157.1875 139.4375 C-157.51492188 140.49324219 -157.84234375 141.54898438 -158.1796875 142.63671875 C-161.41169918 153.5477071 -162.29811554 164.09784812 -163.1875 175.4375 C-170.1175 175.4375 -177.0475 175.4375 -184.1875 175.4375 C-184.5988699 160.83386842 -182.63646374 147.3547712 -178.1875 133.4375 C-177.86652344 132.33664062 -177.54554688 131.23578125 -177.21484375 130.1015625 C-168.48386688 100.33847536 -151.79437287 74.44626616 -130.1875 52.4375 C-129.69443359 51.9336377 -129.20136719 51.42977539 -128.69335938 50.91064453 C-105.21995862 27.27572955 -74.19748068 12.36843784 -42.1875 4.4375 C-40.98673828 4.11990723 -40.98673828 4.11990723 -39.76171875 3.79589844 C-26.60594503 0.39929729 -13.50778243 0.04715957 0 0 Z " fill="#FE7918" transform="translate(613.1875,345.5625)"/>
<path d="M0 0 C7.59 0 15.18 0 23 0 C23.02505615 2.8673584 23.0501123 5.7347168 23.07592773 8.68896484 C23.1592666 18.14460708 23.24796972 27.60019346 23.33933926 37.05576134 C23.39459063 42.7907351 23.44801417 48.52571394 23.49731445 54.26074219 C23.54492533 59.79152606 23.59726693 65.32224648 23.65294075 70.85295486 C23.67337917 72.96692965 23.69208975 75.08092185 23.70907402 77.19492722 C23.73308512 80.14743111 23.76314415 83.09981434 23.79467773 86.05224609 C23.80331093 87.37394051 23.80331093 87.37394051 23.81211853 88.72233582 C23.74240209 92.99684399 23.74240209 92.99684399 25 97 C34.48346015 97.04627819 43.96688161 97.08184612 53.45042992 97.10362434 C57.85371251 97.11407518 62.25691802 97.12825796 66.66015625 97.15087891 C70.90709824 97.17256112 75.15396596 97.18455883 79.40095901 97.18975449 C81.02373042 97.19345858 82.64649762 97.20069146 84.26923752 97.21146011 C86.53684117 97.2259138 88.80413528 97.22798054 91.07177734 97.22705078 C93.01037125 97.23371262 93.01037125 97.23371262 94.98812866 97.24050903 C98.11382635 97.3185584 98.11382635 97.3185584 100 95 C100.21794594 92.01880998 100.31145409 89.12783929 100.31884766 86.14404297 C100.32889328 85.22691528 100.3389389 84.3097876 100.34928894 83.36486816 C100.38025685 80.32398117 100.39719378 77.28318275 100.4140625 74.2421875 C100.43276321 72.1375349 100.45233578 70.03288987 100.4727478 67.92825317 C100.52419093 62.38149475 100.56375134 56.83471198 100.60089111 51.2878418 C100.64085457 45.63063475 100.69198175 39.97353003 100.7421875 34.31640625 C100.839091 23.21100204 100.92241816 12.10555602 101 1 C108.26 1 115.52 1 123 1 C123.09267145 19.89783167 123.16401708 38.79559898 123.20724869 57.69361115 C123.22785713 66.46867111 123.25594479 75.24358713 123.30175781 84.01855469 C123.34167829 91.66853099 123.3674453 99.31840301 123.37635398 106.96848059 C123.38155994 111.01763667 123.39375972 115.0664945 123.42292023 119.11555481 C123.4501719 122.93065634 123.45842549 126.74533817 123.45243073 130.5605278 C123.45352663 131.95689046 123.46142264 133.35326788 123.4768219 134.74954605 C123.5930468 145.83637696 121.74817073 152.88286876 114 161 C107.57668015 165.91998968 101.86815433 167.30507813 93.88330078 167.22705078 C92.69692772 167.22748886 92.69692772 167.22748886 91.48658752 167.22793579 C88.8893817 167.22654973 86.29246781 167.21102287 83.6953125 167.1953125 C81.88784949 167.19157979 80.08038446 167.18873404 78.2729187 167.18673706 C73.52838501 167.1791209 68.78397483 167.1594898 64.03948975 167.1373291 C59.19301016 167.11682715 54.34651051 167.10772605 49.5 167.09765625 C39.99993716 167.07624194 30.4999982 167.04107629 21 167 C21 159.41 21 151.82 21 144 C23.32208496 143.98018066 25.64416992 143.96036133 28.03662109 143.93994141 C35.69619158 143.87312938 43.35562446 143.79548881 51.01503563 143.71247292 C55.66038381 143.66245931 60.30570869 143.61612991 64.95117188 143.578125 C69.43164384 143.54133592 73.91192316 143.49499376 78.39223099 143.44193649 C80.104271 143.42335851 81.81635236 143.40826322 83.52845383 143.39665604 C85.92070122 143.37985148 88.31250412 143.35083148 90.70458984 143.31884766 C91.41740616 143.31668747 92.13022247 143.31452728 92.86463928 143.31230164 C96.87885915 143.34886778 96.87885915 143.34886778 100 141 C100.36952049 138.87139338 100.36952049 138.87139338 100.4140625 136.4296875 C100.45273438 135.53378906 100.49140625 134.63789062 100.53125 133.71484375 C100.5621875 132.77769531 100.593125 131.84054687 100.625 130.875 C100.66367188 129.93011719 100.70234375 128.98523438 100.7421875 128.01171875 C100.83661346 125.67467625 100.92218394 123.33764499 101 121 C100.03026749 121.00888245 99.06053497 121.01776489 98.06141663 121.0269165 C88.89612859 121.108212 79.73091429 121.16806567 70.56534672 121.20724869 C65.8538764 121.22807077 61.14269853 121.25628944 56.43139648 121.30175781 C51.8796599 121.34540837 47.32820357 121.36917752 42.77627373 121.37950897 C41.04482045 121.38686601 39.31338149 121.40123231 37.58204842 121.42292023 C25.96645299 121.56256043 16.53444209 121.0157007 7.5703125 112.84375 C2.81860216 107.26462741 -0.12974906 100.16627759 -0.12025452 92.83648682 C-0.12162918 92.01481522 -0.12300385 91.19314362 -0.12442017 90.34657288 C-0.12082489 89.45393234 -0.11722961 88.56129181 -0.11352539 87.64160156 C-0.11367142 86.69492111 -0.11381744 85.74824066 -0.1139679 84.77287292 C-0.11327153 81.6454336 -0.10549198 78.51805392 -0.09765625 75.390625 C-0.09579109 73.22157829 -0.09436765 71.05253117 -0.09336853 68.88348389 C-0.08955106 63.17558631 -0.07972731 57.46771418 -0.06866455 51.75982666 C-0.0584339 45.93494003 -0.05386736 40.11004928 -0.04882812 34.28515625 C-0.03810438 22.85675785 -0.02051378 11.42838503 0 0 Z " fill="#053345" transform="translate(1453,444)"/>
<path d="M0 0 C7.26 0 14.52 0 22 0 C22 21.12 22 42.24 22 64 C57.97 64 93.94 64 131 64 C131 42.88 131 21.76 131 0 C138.26 0 145.52 0 153 0 C153 49.5 153 99 153 150 C145.74 150 138.48 150 131 150 C131 128.88 131 107.76 131 86 C95.03 86 59.06 86 22 86 C22 107.12 22 128.24 22 150 C14.74 150 7.48 150 0 150 C0 100.5 0 51 0 0 Z " fill="#013042" transform="translate(1031,415)"/>
<path d="M0 0 C40.92 0 81.84 0 124 0 C124 27 124 27 118.3125 33.0625 C116.375 34.34887695 116.375 34.34887695 114.6875 35.11328125 C111.02734934 36.92524646 108.00607029 39.18781159 104.8125 41.75 C103.73232863 42.58444439 102.65022751 43.41639555 101.56640625 44.24609375 C97.44933309 47.41998712 93.3506171 50.61739574 89.25 53.8125 C81.17666809 60.10145276 73.05512366 66.32526257 64.91943359 72.53320312 C62.107635 74.6819294 59.30365845 76.84066058 56.5 79 C48.67904165 85.01612181 40.83806649 91.00618445 33 97 C63.03 97.33 93.06 97.66 124 98 C124 105.59 124 113.18 124 121 C83.41 121 42.82 121 1 121 C1 112.09 1 103.18 1 94 C6.31185121 89.3521302 11.57058268 84.92107843 17.1875 80.6875 C18.68632308 79.54964402 20.18501981 78.41162158 21.68359375 77.2734375 C22.41562012 76.71881836 23.14764648 76.16419922 23.90185547 75.59277344 C26.8615242 73.34598745 29.80696907 71.08101074 32.75 68.8125 C35.85154204 66.42404426 38.95326358 64.03587304 42.05859375 61.65234375 C48.30768491 56.85435241 54.53524819 52.02989658 60.75 47.1875 C70.7727392 39.37989649 80.83595264 31.62303552 91 24 C60.97 23.67 30.94 23.34 0 23 C0 15.41 0 7.82 0 0 Z " fill="#063445" transform="translate(1598,444)"/>
<path d="M0 0 C16.314375 -0.061875 32.62875 -0.12375 49.4375 -0.1875 C57.14565063 -0.22846802 57.14565063 -0.22846802 65.00952148 -0.27026367 C71.31652832 -0.28381348 71.31652832 -0.28381348 74.27528381 -0.28633118 C76.32824152 -0.29091803 78.38119147 -0.30142783 80.43409729 -0.31672668 C83.55573425 -0.33881384 86.67688013 -0.34171375 89.79858398 -0.34057617 C90.70303725 -0.3513705 91.60749052 -0.36216482 92.53935146 -0.37328625 C101.61082677 -0.32928911 108.64343311 1.83155896 115.27734375 8.109375 C122.00613271 15.49425903 123.30559521 24.06622705 123.22705078 33.69897461 C123.22734283 34.64609314 123.22763489 35.59321167 123.22793579 36.56903076 C123.22654936 39.6802303 123.2110205 42.79118636 123.1953125 45.90234375 C123.19157993 48.06710174 123.18873411 50.23186142 123.18673706 52.3966217 C123.17911983 58.07985135 123.15948773 63.76297792 123.1373291 69.44616699 C123.1168295 75.25120652 123.10772655 81.05626279 123.09765625 86.86132812 C123.07624004 98.24093786 123.04107344 109.62044422 123 121 C115.41 121 107.82 121 100 121 C99.97494385 118.09711182 99.9498877 115.19422363 99.92407227 112.20336914 C99.84077396 102.63596114 99.75206582 93.06860888 99.66066074 83.50127506 C99.6053836 77.69789131 99.55195608 71.89450256 99.50268555 66.09106445 C99.45511249 60.49544668 99.40277252 54.89989234 99.34705925 49.3043499 C99.3266036 47.16442878 99.30789596 45.02449025 99.29092598 42.88453865 C99.26695277 39.89830319 99.23688892 36.91218883 99.20532227 33.92602539 C99.1995668 33.03194977 99.19381134 32.13787415 99.18788147 31.21670532 C99.5275412 27.2928876 99.5275412 27.2928876 98 24 C95.74093182 23.89504878 93.47853588 23.86142612 91.21704102 23.85473633 C90.50809692 23.85137772 89.79915283 23.8480191 89.06872559 23.84455872 C86.71376822 23.83502184 84.35888175 23.83310424 82.00390625 23.83203125 C80.37344838 23.82882055 78.74299081 23.82545663 77.11253357 23.82194519 C73.69016858 23.81594705 70.26782887 23.81410599 66.84545898 23.81469727 C62.45240768 23.81479892 58.05951787 23.80114607 53.66650486 23.78392506 C50.29769644 23.77282576 46.92892731 23.77077742 43.56010246 23.77130699 C41.94012838 23.77012377 40.32015339 23.76568293 38.70019722 23.75797462 C36.43746645 23.74821633 34.17508954 23.75103607 31.91235352 23.75708008 C30.62297379 23.75565506 29.33359406 23.75423004 28.00514221 23.75276184 C24.88553878 23.68329669 24.88553878 23.68329669 23 26 C22.78201123 29.01149391 22.68854171 31.93366611 22.68115234 34.94775391 C22.67110672 35.87463516 22.6610611 36.80151642 22.65071106 37.75648499 C22.61974213 40.82983766 22.60280593 43.9031027 22.5859375 46.9765625 C22.56723687 49.10363527 22.54766431 51.23070054 22.5272522 53.35775757 C22.4758082 58.96370023 22.43624826 64.56966697 22.39910889 70.17572021 C22.35914597 75.89324969 22.30801855 81.61067792 22.2578125 87.328125 C22.16090797 98.55201947 22.0775812 109.77595531 22 121 C14.74 121 7.48 121 0 121 C0 81.07 0 41.14 0 0 Z " fill="#043244" transform="translate(1884,444)"/>
<path d="M0 0 C0.70923615 -0.00365067 1.41847229 -0.00730133 2.14920044 -0.01106262 C4.49350935 -0.01916877 6.83712725 -0.00555945 9.18139648 0.0090332 C10.80899556 0.00955175 12.43659527 0.00903427 14.06419373 0.00752258 C17.47469435 0.00761231 20.88495857 0.01804264 24.29541016 0.03613281 C28.67274409 0.05883809 33.04973309 0.05936088 37.42710972 0.05261517 C40.78735942 0.04927836 44.14753009 0.05589951 47.50776482 0.0657444 C49.12214685 0.06960032 50.73653767 0.070743 52.35092354 0.06915855 C54.60391206 0.06878883 56.85645347 0.08138093 59.109375 0.09765625 C60.39272232 0.10226364 61.67606964 0.10687103 62.99830627 0.11161804 C65.98999023 0.37231445 65.98999023 0.37231445 67.98999023 2.37231445 C68.24395752 5.25010681 68.24395752 5.25010681 68.2487793 8.97753906 C68.25228394 9.65576218 68.25578857 10.33398529 68.25939941 11.03276062 C68.26821923 13.28016321 68.26236622 15.52725227 68.25561523 17.7746582 C68.25696197 19.33403077 68.25890258 20.89340292 68.26141357 22.45277405 C68.2643653 25.72376496 68.26006628 28.99464676 68.25073242 32.265625 C68.23934723 36.46015343 68.24589103 40.65442567 68.25787735 44.84894466 C68.26510273 48.07025585 68.26280474 51.29150627 68.25762177 54.51281929 C68.25628666 56.05939324 68.25792815 57.60597268 68.26258087 59.15254021 C68.26765626 61.31440728 68.25992154 63.47585918 68.2487793 65.63769531 C68.24718811 66.86854355 68.24559692 68.09939178 68.24395752 69.36753845 C67.98999023 72.37231445 67.98999023 72.37231445 65.98999023 75.37231445 C62.99830627 75.75326538 62.99830627 75.75326538 59.109375 75.76049805 C58.40189117 75.765755 57.69440735 75.77101196 56.96548462 75.77642822 C54.62056571 75.78966067 52.27632262 75.78087825 49.93139648 75.77075195 C48.30476246 75.77277199 46.67812933 75.77568285 45.05149841 75.77944946 C41.6392252 75.78387738 38.2271873 75.77742774 34.81494141 75.76342773 C30.4387081 75.74634896 26.06302725 75.7561655 21.68681431 75.77414513 C18.32651095 75.78498204 14.96633871 75.78153685 11.60603142 75.77376175 C9.99247103 75.77175877 8.37889879 75.77422244 6.76535225 75.78120041 C4.50991394 75.78881209 2.25537152 75.77721518 0 75.76049805 C-1.28414291 75.75811127 -2.56828583 75.75572449 -3.89134216 75.75326538 C-7.01000977 75.37231445 -7.01000977 75.37231445 -8.9238739 74.26223755 C-10.56231832 71.41127382 -10.3917378 69.01824901 -10.39819336 65.74536133 C-10.40345032 65.07674576 -10.40870728 64.40813019 -10.41412354 63.71925354 C-10.42732502 61.50961938 -10.41858558 59.30070591 -10.40844727 57.09106445 C-10.41046797 55.55554058 -10.41337939 54.02001765 -10.41714478 52.48449707 C-10.4215683 49.26650861 -10.41513636 46.04876997 -10.40112305 42.83081055 C-10.38403088 38.70457829 -10.39387195 34.57893141 -10.41184044 30.45272064 C-10.42267765 27.28199854 -10.41923228 24.11141536 -10.41145706 20.94068909 C-10.40945487 19.41923453 -10.41191503 17.89776738 -10.41889572 16.37632751 C-10.42650949 14.25030067 -10.41490859 12.12522362 -10.39819336 9.99926758 C-10.39580658 8.78920044 -10.3934198 7.5791333 -10.39096069 6.33239746 C-10.01000977 3.37231445 -10.01000977 3.37231445 -8.9238739 1.48139954 C-5.96506004 -0.23323436 -3.39812783 -0.0016656 0 0 Z " fill="#FDFEFE" transform="translate(1239.010009765625,466.627685546875)"/>
<path d="M0 0 C0.70909012 -0.00350464 1.41818024 -0.00700928 2.14875793 -0.01062012 C4.49835937 -0.01944014 6.84766099 -0.01358746 9.19726562 -0.00683594 C10.82629454 -0.00818251 12.45532305 -0.01012298 14.08435059 -0.01263428 C17.50077129 -0.0155859 20.91708752 -0.0112867 24.33349609 -0.00195312 C28.71868964 0.00944148 33.10363838 0.00288221 37.48882294 -0.00909805 C40.85335138 -0.01631564 44.21782152 -0.0140292 47.58235168 -0.00884247 C49.1995293 -0.00750569 50.81671217 -0.00915468 52.43388367 -0.01380157 C54.69174272 -0.01886522 56.94920206 -0.0111592 59.20703125 0 C61.13657654 0.00238678 61.13657654 0.00238678 63.10510254 0.00482178 C66.10351562 0.25878906 66.10351562 0.25878906 68.10351562 2.25878906 C68.35748291 5.18127441 68.35748291 5.18127441 68.36230469 8.97167969 C68.36580933 9.66126266 68.36931396 10.35084564 68.3729248 11.06132507 C68.38174392 13.34599811 68.3758925 15.63036275 68.36914062 17.91503906 C68.37048723 19.49922749 68.37242772 21.08341552 68.37493896 22.66760254 C68.37789047 25.98986745 68.3735918 29.31202491 68.36425781 32.63427734 C68.3528632 36.89840497 68.35942254 41.16228085 68.37140274 45.42639923 C68.37862068 48.69828192 68.37633373 51.97010467 68.37114716 55.24198914 C68.36981047 56.81450937 68.37145903 58.38703501 68.37610626 59.95954895 C68.38117048 62.15514599 68.37346312 64.3503321 68.36230469 66.54589844 C68.3607135 67.79673218 68.35912231 69.04756592 68.35748291 70.33630371 C68.10351562 73.25878906 68.10351562 73.25878906 66.10351562 75.25878906 C63.10510254 75.51275635 63.10510254 75.51275635 59.20703125 75.51757812 C58.14339607 75.52283508 58.14339607 75.52283508 57.05827332 75.52819824 C54.70867188 75.53701827 52.35937026 75.53116559 50.00976562 75.52441406 C48.38073671 75.52576064 46.7517082 75.52770111 45.12268066 75.5302124 C41.70625996 75.53316403 38.28994373 75.52886483 34.87353516 75.51953125 C30.48834161 75.50813664 26.10339287 75.51469592 21.71820831 75.52667618 C18.35367987 75.53389377 14.98920973 75.53160733 11.62467957 75.52642059 C10.00750195 75.52508381 8.39031908 75.5267328 6.77314758 75.5313797 C4.51528853 75.53644334 2.25782919 75.52873732 0 75.51757812 C-1.28636353 75.51598694 -2.57272705 75.51439575 -3.89807129 75.51275635 C-6.89648438 75.25878906 -6.89648438 75.25878906 -8.89648438 73.25878906 C-9.15045166 70.33630371 -9.15045166 70.33630371 -9.15527344 66.54589844 C-9.15877808 65.85631546 -9.16228271 65.16673248 -9.16589355 64.45625305 C-9.17471267 62.17158001 -9.16886125 59.88721538 -9.16210938 57.60253906 C-9.16345598 56.01835063 -9.16539647 54.4341626 -9.16790771 52.84997559 C-9.17085922 49.52771068 -9.16656055 46.20555322 -9.15722656 42.88330078 C-9.14583195 38.61917316 -9.15239129 34.35529728 -9.16437149 30.09117889 C-9.17158943 26.8192962 -9.16930248 23.54747346 -9.16411591 20.27558899 C-9.16277922 18.70306875 -9.16442778 17.13054311 -9.16907501 15.55802917 C-9.17413923 13.36243213 -9.16643187 11.16724603 -9.15527344 8.97167969 C-9.15368225 7.72084595 -9.15209106 6.47001221 -9.15045166 5.18127441 C-8.63425134 -0.75881298 -5.07246872 0.00627447 0 0 Z " fill="#FEFEFE" transform="translate(1774.896484375,466.7412109375)"/>
<path d="M0 0 C7.26 0 14.52 0 22 0 C22 12.54 22 25.08 22 38 C38.5 38 55 38 72 38 C72 45.59 72 53.18 72 61 C55.5 61 39 61 22 61 C22.495 97.63 22.495 97.63 23 135 C47.255 135.495 47.255 135.495 72 136 C72 143.59 72 151.18 72 159 C64.91888924 159.11520245 57.84106914 159.21462274 50.75976562 159.2746582 C48.3543797 159.29970084 45.94906911 159.333745 43.54394531 159.37719727 C40.07337794 159.4382988 36.60382228 159.46631363 33.1328125 159.48828125 C31.53688766 159.52699089 31.53688766 159.52699089 29.90872192 159.56648254 C21.14791596 159.56972527 14.63019472 157.24400379 8.0625 151.375 C7.381875 150.59125 6.70125 149.8075 6 149 C5.46375 148.54625 4.9275 148.0925 4.375 147.625 C-1.12190281 141.12866032 -0.40869568 133.49539385 -0.34057617 125.44555664 C-0.33972897 124.07508361 -0.34020687 122.70460921 -0.34190369 121.33413696 C-0.34276143 117.63000357 -0.32517183 113.92616395 -0.30418181 110.22209859 C-0.28537792 106.34505674 -0.28366166 102.46800753 -0.28010559 98.59092712 C-0.270796 91.25644874 -0.24619701 83.92210514 -0.21605712 76.587686 C-0.18247922 68.23461821 -0.1660186 59.88154386 -0.15097082 51.52842534 C-0.11964641 34.3522035 -0.06630004 17.17612118 0 0 Z " fill="#043244" transform="translate(2029,406)"/>
<path d="M0 0 C1.08374153 -0.00043808 1.08374153 -0.00043808 2.18937683 -0.00088501 C4.56477084 0.00050239 6.93984669 0.01603553 9.31518555 0.03173828 C10.96713591 0.03547051 12.6190885 0.03831649 14.27104187 0.04031372 C18.60952921 0.04793364 22.94788169 0.06756797 27.28631592 0.08972168 C31.71714453 0.11021552 36.14799503 0.119323 40.57885742 0.12939453 C49.26577503 0.15081549 57.95255733 0.18598419 66.6394043 0.22705078 C66.6394043 7.81705078 66.6394043 15.40705078 66.6394043 23.22705078 C63.47435303 23.25677979 63.47435303 23.25677979 60.24536133 23.28710938 C53.28427498 23.35392955 46.32333988 23.43157001 39.36242867 23.51457787 C35.14082265 23.5645857 30.9192422 23.61091511 26.69750977 23.64892578 C22.6255089 23.68572223 18.55371971 23.73206632 14.48189926 23.78511429 C12.92616351 23.80368836 11.37038233 23.81878513 9.81457901 23.83039474 C7.6402429 23.84720611 5.46639477 23.87622738 3.29223633 23.90820312 C2.05313507 23.92152679 0.81403381 23.93485046 -0.46261597 23.94857788 C-3.48673542 23.92903797 -3.48673542 23.92903797 -5.3605957 26.22705078 C-5.57858447 29.23854469 -5.67205399 32.16071689 -5.67944336 35.17480469 C-5.68948898 36.10168594 -5.69953461 37.0285672 -5.70988464 37.98353577 C-5.74085357 41.05688844 -5.75778977 44.13015348 -5.7746582 47.20361328 C-5.79335883 49.33068605 -5.8129314 51.45775132 -5.83334351 53.58480835 C-5.8847875 59.19075101 -5.92434745 64.79671775 -5.96148682 70.402771 C-6.00144973 76.12030047 -6.05257715 81.8377287 -6.1027832 87.55517578 C-6.19968773 98.77907026 -6.2830145 110.00300609 -6.3605957 121.22705078 C-13.6205957 121.22705078 -20.8805957 121.22705078 -28.3605957 121.22705078 C-28.40582762 108.71799 -28.44250108 96.20898377 -28.46422005 83.69985962 C-28.47464543 77.89102127 -28.48878197 72.08224191 -28.51147461 66.2734375 C-28.53324727 60.66486025 -28.5451737 55.05633965 -28.55035019 49.44772339 C-28.55403799 47.31077178 -28.56123933 45.17382317 -28.57205582 43.03689575 C-28.5866294 40.03771325 -28.58857118 37.03876314 -28.58764648 34.03955078 C-28.59483704 33.16129135 -28.60202759 32.28303192 -28.60943604 31.37815857 C-28.57871533 22.13544766 -26.80637368 15.08365856 -20.3605957 8.22705078 C-13.91914051 2.52932525 -8.73491247 -0.0297612 0 0 Z " fill="#043244" transform="translate(1376.360595703125,443.77294921875)"/>
<path d="M0 0 C6.93 0 13.86 0 21 0 C21 11.27833828 21 11.27833828 20.30078125 15.99609375 C20.14633545 17.03942871 19.99188965 18.08276367 19.83276367 19.15771484 C19.66107666 20.24004395 19.48938965 21.32237305 19.3125 22.4375 C19.13243408 23.57912598 18.95236816 24.72075195 18.7668457 25.89697266 C11.63057622 69.37304073 -7.76837199 110.32432951 -37.80859375 142.62109375 C-39.57315132 144.53662951 -41.24507608 146.47131794 -42.875 148.5 C-46.25079098 152.4715188 -47.63452664 153.82660656 -52.9375 154.5 C-56.49002984 154.38732648 -56.99605669 154.00327211 -59.9375 151.5625 C-60.618125 150.716875 -61.29875 149.87125 -62 149 C-62.33 148.67 -62.66 148.34 -63 148 C-63.73358913 143.37838848 -64.07851104 140.57228718 -61.37890625 136.63671875 C-58.98127249 134.02539214 -56.49584783 131.51751944 -54 129 C-21.02435647 92.64041888 -5.3777066 48.15491822 0 0 Z " fill="#AD2134" transform="translate(821,542)"/>
<path d="M0 0 C8.4459375 -0.12375 8.4459375 -0.12375 17.0625 -0.25 C19.7077771 -0.30462402 19.7077771 -0.30462402 22.40649414 -0.36035156 C23.82436918 -0.37204798 25.24225778 -0.38223755 26.66015625 -0.390625 C27.38005737 -0.41108887 28.0999585 -0.43155273 28.8416748 -0.45263672 C34.33167608 -0.45637586 37.45731118 0.90140805 42 4 C45.48814876 7.66702818 46.29279901 10.57396351 46.5 15.5 C46.30013186 20.4034317 45.46987891 23.34749588 42 27 C39 28.75 39 28.75 36 30 C34.66286818 30.65901497 33.32872005 31.32418549 32 32 C32.46148438 32.3196875 32.92296875 32.639375 33.3984375 32.96875 C38.65215855 37.03882639 42.03604886 41.7244396 45.5 47.3125 C45.94520996 48.03050781 46.39041992 48.74851562 46.84912109 49.48828125 C50 54.70966709 50 54.70966709 50 57 C46.85362773 57.54942933 44.13074272 57.7061394 41 57 C38.24074355 54.51893088 36.57017406 51.52006216 34.75 48.3125 C33.77097957 46.68036989 32.78671035 45.0513752 31.796875 43.42578125 C31.33087891 42.6570166 30.86488281 41.88825195 30.38476562 41.09619141 C28.15439318 37.71996118 25.66977198 34.83488599 22 33 C17.34005103 32.54741503 12.67317512 32.29738387 8 32 C8 40.25 8 48.5 8 57 C5.36 57 2.72 57 0 57 C0 38.19 0 19.38 0 0 Z " fill="#0B3849" transform="translate(1805,296)"/>
<path d="M0 0 C2.31 0 4.62 0 7 0 C9.53326983 9.86485077 11.89814966 19.76329753 14.1875 29.6875 C14.58026123 31.3888208 14.58026123 31.3888208 14.98095703 33.12451172 C16.04157982 37.74081195 17.09010831 42.35126142 18 47 C18.21615967 46.18023682 18.43231934 45.36047363 18.6550293 44.51586914 C26.60702594 14.40388609 26.60702594 14.40388609 31 0 C34.3 0 37.6 0 41 0 C44.82667263 12.21888553 48.5077777 24.42193464 51.48901367 36.87792969 C52.43151043 41.04606698 52.43151043 41.04606698 54 45 C54.73077962 41.95871288 55.45999574 38.91707137 56.1875 35.875 C56.41018555 34.94389404 56.63287109 34.01278809 56.86230469 33.0534668 C58.77272746 25.02928923 60.60339479 16.9882522 62.38745117 8.93505859 C62.68292847 7.61562256 62.68292847 7.61562256 62.984375 6.26953125 C63.15678711 5.49198486 63.32919922 4.71443848 63.50683594 3.91333008 C64 2 64 2 65 0 C67.64 0 70.28 0 73 0 C71.33287417 7.79347439 69.35038205 15.4131646 67.0546875 23.03979492 C64.91307484 30.1888613 62.9705354 37.38860192 61.05541992 44.60131836 C59.91663219 48.84477276 58.78577125 52.97143547 57 57 C54.36 57 51.72 57 49 57 C48.8141333 56.27635254 48.6282666 55.55270508 48.43676758 54.80712891 C47.56379495 51.41262394 46.68852324 48.018719 45.8125 44.625 C45.33864868 42.78796509 45.33864868 42.78796509 44.85522461 40.91381836 C42.81481973 33.03984895 40.71327773 25.18863289 38.4230957 17.38330078 C37.47083213 14.06633686 37 11.49299306 37 8 C36.34 8 35.68 8 35 8 C34.90332031 9.24394531 34.80664062 10.48789062 34.70703125 11.76953125 C34.05422166 17.61966551 32.40253273 23.07279889 30.6875 28.6875 C30.05305335 30.80849445 29.41893739 32.92958785 28.78515625 35.05078125 C28.47852051 36.06865723 28.17188477 37.0865332 27.85595703 38.13525391 C26.4215556 42.9359574 25.07663045 47.76091205 23.7265625 52.5859375 C23 55 23 55 22 57 C19.36 57 16.72 57 14 57 C13.68869141 55.81083984 13.68869141 55.81083984 13.37109375 54.59765625 C10.85542437 45.07179521 8.21924485 35.58198672 5.55053711 26.09790039 C4.97849941 24.06411387 4.40783182 22.02994141 3.83862305 19.99536133 C3.2710347 17.96807126 2.69946679 15.94189185 2.12426758 13.91674805 C1.85122803 12.94261963 1.57818848 11.96849121 1.296875 10.96484375 C1.05163086 10.09722412 0.80638672 9.22960449 0.55371094 8.33569336 C-0.11610166 5.51025371 -0.23442322 2.89121968 0 0 Z " fill="#0A3849" transform="translate(1378,296)"/>
<path d="M0 0 C5.19010925 1.76267861 7.82359651 4.58832849 11 9 C14.29229434 15.73476351 14.18302087 23.82916362 12.16015625 30.9609375 C9.88523396 36.06227839 7.15058832 39.57875065 2.18359375 42.2265625 C-1.5976913 43.56590855 -5.06483408 43.71207764 -9 43 C-11.41869578 41.8410416 -13.12322096 40.87677904 -15 39 C-15.33 45.27 -15.66 51.54 -16 58 C-18.31 58 -20.62 58 -23 58 C-23 39.19 -23 20.38 -23 1 C-21.02 1 -19.04 1 -17 1 C-16.67 2.32 -16.34 3.64 -16 5 C-14.824375 3.7625 -14.824375 3.7625 -13.625 2.5 C-9.44032622 -0.99053358 -5.20528022 -0.76423364 0 0 Z " fill="#093647" transform="translate(1520,311)"/>
<path d="M0 0 C2.31 0 4.62 0 7 0 C7 18.81 7 37.62 7 57 C5.02 57 3.04 57 1 57 C0.67 55.68 0.34 54.36 0 53 C-0.598125 53.639375 -1.19625 54.27875 -1.8125 54.9375 C-5.42353245 58.34218774 -8.98912783 58.34639036 -13.72265625 58.27734375 C-18.5858926 57.68507998 -21.63260711 54.569567 -24.75 51.0625 C-29.61718829 44.43771594 -29.91270919 38.02811552 -29 30 C-27.08294322 24.05870834 -24.406384 19.36072519 -19 16 C-15.3210526 14.1605263 -11.02467049 14.6266422 -7 15 C-4.51949071 16.16432069 -2.90574048 17.09425952 -1 19 C-0.67 12.73 -0.34 6.46 0 0 Z " fill="#093748" transform="translate(1194,296)"/>
<path d="M0 0 C5.01177966 2.22427554 8.02407458 5.55817953 10.61328125 10.34765625 C12.69124398 16.58154444 12.85492287 25.2206485 10.42578125 31.41015625 C7.16965246 36.6873305 3.50725304 40.27385136 -2.38671875 42.34765625 C-8.60178087 43.02481974 -14.15813111 43.11710316 -19.38671875 39.34765625 C-25.31891614 33.68705344 -27.4320123 28.6844075 -27.76171875 20.47265625 C-27.62681358 13.21475786 -25.58967439 8.88105524 -20.88671875 3.47265625 C-14.81616535 -1.68731414 -7.627257 -2.08470036 0 0 Z " fill="#0C394A" transform="translate(2029.38671875,311.65234375)"/>
<path d="M0 0 C4.44460371 2.70162186 7.8480979 6.2586958 10.1875 10.9375 C11.35967025 28.80829236 11.35967025 28.80829236 6.1875 35.9375 C0.52623602 41.31570078 -4.08524828 42.45690095 -11.765625 42.31640625 C-17.9401831 41.54854454 -21.5065942 38.6117382 -25.25 33.8125 C-28.96015511 26.98581459 -29.1417495 17.79215034 -27.09375 10.3125 C-21.81682448 -0.92224466 -11.208579 -3.12370234 0 0 Z " fill="#093748" transform="translate(1887.8125,312.0625)"/>
<path d="M0 0 C2.85716116 2.37364158 3.47421605 4.75476899 3.82641602 8.41015625 C3.85147217 9.62058594 3.87652832 10.83101563 3.90234375 12.078125 C3.91933823 12.72885986 3.9363327 13.37959473 3.95384216 14.05004883 C4.00677592 16.12180985 4.04716445 18.1935545 4.0859375 20.265625 C4.13000656 22.33759304 4.17683493 24.40941439 4.22874451 26.48120117 C4.27507396 28.36102793 4.31268838 30.24106348 4.34985352 32.12109375 C4.49156973 34.6883298 4.7716153 36.8234338 5.5234375 39.265625 C3.2134375 39.265625 0.9034375 39.265625 -1.4765625 39.265625 C-1.8065625 37.945625 -2.1365625 36.625625 -2.4765625 35.265625 C-3.35054687 35.80703125 -3.35054687 35.80703125 -4.2421875 36.359375 C-10.90510208 40.13083608 -16.8356825 41.56252118 -24.4765625 40.265625 C-28.03034558 38.41279793 -30.65890149 36.90094702 -32.4765625 33.265625 C-33.325397 28.37783074 -33.02736848 25.1951101 -30.4765625 20.890625 C-22.9102418 14.27009439 -13.06764252 14.25499612 -3.4765625 13.265625 C-4.57442675 7.85775115 -4.57442675 7.85775115 -8.4765625 4.265625 C-11.11762792 3.94831644 -11.11762792 3.94831644 -13.9765625 4.015625 C-14.935625 4.01046875 -15.8946875 4.0053125 -16.8828125 4 C-19.71279147 4.08579891 -19.71279147 4.08579891 -22.4765625 6.265625 C-23.66888863 8.31566455 -23.66888863 8.31566455 -24.4765625 10.265625 C-26.7865625 10.265625 -29.0965625 10.265625 -31.4765625 10.265625 C-30.96971706 5.83072737 -29.678106 3.38507764 -26.4765625 0.265625 C-18.04314601 -4.10167997 -8.46853636 -4.50225984 0 0 Z " fill="#0A3849" transform="translate(1242.4765625,313.734375)"/>
<path d="M0 0 C1.29550781 -0.03738281 2.59101562 -0.07476562 3.92578125 -0.11328125 C8.27508598 0.37900766 10.32989299 1.55995659 13.6875 4.3125 C15.82368043 7.51677064 15.9598765 8.50959514 16.06640625 12.21484375 C16.10000244 13.18284912 16.13359863 14.15085449 16.16821289 15.14819336 C16.19520264 16.17178955 16.22219238 17.19538574 16.25 18.25 C16.32113715 20.33339486 16.39403806 22.41673028 16.46875 24.5 C16.52095703 26.00240234 16.52095703 26.00240234 16.57421875 27.53515625 C16.77576137 32.47642543 17.19019257 37.39233075 17.6875 42.3125 C15.3775 42.3125 13.0675 42.3125 10.6875 42.3125 C10.0275 40.9925 9.3675 39.6725 8.6875 38.3125 C7.78 38.951875 6.8725 39.59125 5.9375 40.25 C0.70868137 43.56828875 -4.21565491 43.90524883 -10.3125 43.3125 C-14.58426315 41.7303655 -16.91959273 40.16166227 -19.3125 36.3125 C-19.97625665 32.91074717 -19.91507735 29.72341947 -19.3125 26.3125 C-14.75480779 20.39981821 -9.92128807 18.85054045 -2.8125 17.6875 C-2.04035156 17.5534375 -1.26820312 17.419375 -0.47265625 17.28125 C2.61370906 16.75704931 5.55153827 16.3125 8.6875 16.3125 C8.40598913 14.99778432 8.11196661 13.68574233 7.8125 12.375 C7.65007812 11.64410156 7.48765625 10.91320312 7.3203125 10.16015625 C6.85788477 8.10549706 6.85788477 8.10549706 4.6875 7.3125 C2.89997508 7.16495826 1.1058716 7.0913478 -0.6875 7.0625 C-1.64398437 7.03671875 -2.60046875 7.0109375 -3.5859375 6.984375 C-6.74678645 7.3647637 -8.05241733 8.10401739 -10.3125 10.3125 C-10.6425 11.3025 -10.9725 12.2925 -11.3125 13.3125 C-13.6225 13.3125 -15.9325 13.3125 -18.3125 13.3125 C-18.23728893 10.15363505 -17.93772327 8.01165712 -15.79296875 5.61328125 C-10.58688853 1.08673151 -6.97596861 0.13110129 0 0 Z " fill="#0A3748" transform="translate(1648.3125,310.6875)"/>
<path d="M0 0 C2.95554509 1.79902744 4.15461077 2.80107243 5.875 5.75 C6.29150391 8.87866211 6.29150391 8.87866211 6.3515625 12.52734375 C6.3825 13.84541016 6.4134375 15.16347656 6.4453125 16.52148438 C6.46428374 17.91014631 6.48250582 19.29881867 6.5 20.6875 C6.54830779 23.40513122 6.60565122 26.1223919 6.6640625 28.83984375 C6.68162598 30.04503662 6.69918945 31.25022949 6.71728516 32.49194336 C6.85630158 35.36373009 7.21772875 37.95775089 7.875 40.75 C5.565 40.75 3.255 40.75 0.875 40.75 C0.215 39.43 -0.445 38.11 -1.125 36.75 C-2.0325 37.389375 -2.94 38.02875 -3.875 38.6875 C-9.17646241 42.0518896 -13.96740293 42.16933457 -20.125 41.75 C-24.62245133 40.65062301 -26.72320021 38.69581394 -29.125 34.75 C-30.54353002 30.33982654 -30.56112957 27.63903336 -28.5 23.4375 C-23.86470957 18.19230293 -19.14598422 17.1002262 -12.5 16.0625 C-11.736875 15.93294922 -10.97375 15.80339844 -10.1875 15.66992188 C-7.13524308 15.16388981 -4.22367278 14.75 -1.125 14.75 C-1.40651087 13.43528432 -1.70053339 12.12324233 -2 10.8125 C-2.16242188 10.08160156 -2.32484375 9.35070312 -2.4921875 8.59765625 C-2.95461523 6.54299706 -2.95461523 6.54299706 -5.125 5.75 C-7.1003988 5.60220038 -9.08178924 5.52881034 -11.0625 5.5 C-12.12339844 5.47421875 -13.18429687 5.4484375 -14.27734375 5.421875 C-17.11190769 5.51094481 -17.11190769 5.51094481 -18.94140625 7.078125 C-20.32156866 8.85627664 -20.32156866 8.85627664 -21.125 11.75 C-23.435 11.75 -25.745 11.75 -28.125 11.75 C-27.85491214 7.87874073 -27.36563252 6.04410641 -24.875 3 C-18.14097636 -2.5096557 -8.07741186 -3.15847515 0 0 Z " fill="#093748" transform="translate(1765.125,312.25)"/>
<path d="M0 0 C2.95554509 1.79902744 4.15461077 2.80107243 5.875 5.75 C6.29150391 8.87866211 6.29150391 8.87866211 6.3515625 12.52734375 C6.3825 13.84541016 6.4134375 15.16347656 6.4453125 16.52148438 C6.46428374 17.91014631 6.48250582 19.29881867 6.5 20.6875 C6.54830779 23.40513122 6.60565122 26.1223919 6.6640625 28.83984375 C6.68162598 30.04503662 6.69918945 31.25022949 6.71728516 32.49194336 C6.85630158 35.36373009 7.21772875 37.95775089 7.875 40.75 C5.565 40.75 3.255 40.75 0.875 40.75 C0.215 39.43 -0.445 38.11 -1.125 36.75 C-2.0325 37.389375 -2.94 38.02875 -3.875 38.6875 C-9.17646241 42.0518896 -13.96740293 42.16933457 -20.125 41.75 C-24.62245133 40.65062301 -26.72320021 38.69581394 -29.125 34.75 C-30.54353002 30.33982654 -30.56112957 27.63903336 -28.5 23.4375 C-23.86470957 18.19230293 -19.14598422 17.1002262 -12.5 16.0625 C-11.736875 15.93294922 -10.97375 15.80339844 -10.1875 15.66992188 C-7.13524308 15.16388981 -4.22367278 14.75 -1.125 14.75 C-1.40651087 13.43528432 -1.70053339 12.12324233 -2 10.8125 C-2.16242188 10.08160156 -2.32484375 9.35070312 -2.4921875 8.59765625 C-2.95461523 6.54299706 -2.95461523 6.54299706 -5.125 5.75 C-7.1003988 5.60220038 -9.08178924 5.52881034 -11.0625 5.5 C-12.12339844 5.47421875 -13.18429687 5.4484375 -14.27734375 5.421875 C-17.11190769 5.51094481 -17.11190769 5.51094481 -18.94140625 7.078125 C-20.32156866 8.85627664 -20.32156866 8.85627664 -21.125 11.75 C-23.435 11.75 -25.745 11.75 -28.125 11.75 C-27.85491214 7.87874073 -27.36563252 6.04410641 -24.875 3 C-18.14097636 -2.5096557 -8.07741186 -3.15847515 0 0 Z " fill="#093748" transform="translate(1342.125,312.25)"/>
<path d="M0 0 C5.98664062 2.83577714 9.08580345 7.1716069 12 13 C12 16.3 12 19.6 12 23 C2.1 23 -7.8 23 -18 23 C-16.37282404 31.09686908 -16.37282404 31.09686908 -11 36 C-6.38484378 36.94648394 -3.0872213 36.67083867 0.9375 34.1875 C3.13429109 31.97970018 3.13429109 31.97970018 5 29 C8.625 28.8125 8.625 28.8125 12 29 C10.78991883 35.17141395 9.15719422 37.38996404 4 41 C-0.9675207 44.03570709 -6.36721971 43.46939836 -12 43 C-17.51187045 41.26478152 -20.76908894 37.64568888 -24 33 C-27.15919169 26.68161662 -27.02341475 18.4599044 -25 11.75 C-20.33977013 0.83110393 -10.6412035 -0.93321151 0 0 Z " fill="#0C394A" transform="translate(1583,311)"/>
<path d="M0 0 C2.64 0 5.28 0 8 0 C8.24234375 0.92039062 8.4846875 1.84078125 8.734375 2.7890625 C11.05579413 11.55688397 13.47628877 20.28782664 16 29 C16.77227223 26.39625211 17.54315421 23.79211306 18.3125 21.1875 C18.5403418 20.41664063 18.76818359 19.64578125 19.00292969 18.8515625 C20.56062126 13.55762065 22.03799765 8.24866022 23.421875 2.90625 C24 1 24 1 25 0 C27.67058851 -0.14115161 30.32432238 -0.04247107 33 0 C33.25394531 1.11117188 33.50789063 2.22234375 33.76953125 3.3671875 C35.68843391 16.59401288 35.68843391 16.59401288 41 28 C41.20157715 27.29391602 41.4031543 26.58783203 41.61083984 25.86035156 C42.52817836 22.65572614 43.45152064 19.45286094 44.375 16.25 C44.85066406 14.58324219 44.85066406 14.58324219 45.3359375 12.8828125 C45.6453125 11.81289063 45.9546875 10.74296875 46.2734375 9.640625 C46.55622559 8.65610352 46.83901367 7.67158203 47.13037109 6.65722656 C47.90660383 4.28538009 48.8141331 2.18999175 50 0 C51.98 0 53.96 0 56 0 C55.37488951 5.59622725 53.99924494 10.6566631 52.25 16 C51.98558105 16.82218018 51.72116211 17.64436035 51.44873047 18.49145508 C49.02135762 26.01253404 46.52935796 33.51265278 44 41 C41.36 41 38.72 41 36 41 C35.82871582 40.3702124 35.65743164 39.7404248 35.48095703 39.09155273 C34.69609408 36.20674419 33.91055225 33.32212092 33.125 30.4375 C32.85558594 29.44685547 32.58617187 28.45621094 32.30859375 27.43554688 C30.90429417 22.28073987 29.48295518 17.13275265 28 12 C27.79318604 12.84296631 27.58637207 13.68593262 27.37329102 14.55444336 C26.6064153 17.67298512 25.83639494 20.79072822 25.06420898 23.90795898 C24.73025638 25.25888257 24.39756983 26.61011977 24.06616211 27.96166992 C23.59038637 29.90104277 23.10972104 31.83921405 22.62890625 33.77734375 C22.34088135 34.94515381 22.05285645 36.11296387 21.75610352 37.31616211 C21 40 21 40 20 41 C17.32941149 41.14115161 14.67567762 41.04247107 12 41 C7.87116848 27.3689995 3.87705263 13.70473695 0 0 Z " fill="#0B3849" transform="translate(1942,312)"/>
<path d="M0 0 C12.87 0 25.74 0 39 0 C39 2.31 39 4.62 39 7 C28.77 7 18.54 7 8 7 C8 12.61 8 18.22 8 24 C16.91 24 25.82 24 35 24 C35 26.31 35 28.62 35 31 C25.76 31 16.52 31 7 31 C7 39.58 7 48.16 7 57 C4.69 57 2.38 57 0 57 C0 38.19 0 19.38 0 0 Z " fill="#0C394A" transform="translate(1031,296)"/>
<path d="M0 0 C2.8664875 1.84326031 5.19103387 4.28319216 6.85546875 7.2421875 C6.85546875 8.5621875 6.85546875 9.8821875 6.85546875 11.2421875 C4.54546875 11.2421875 2.23546875 11.2421875 -0.14453125 11.2421875 C-0.43328125 10.6028125 -0.72203125 9.9634375 -1.01953125 9.3046875 C-1.97276576 7.09012671 -1.97276576 7.09012671 -4.14453125 6.2421875 C-5.78708916 6.12103829 -7.43505603 6.06677983 -9.08203125 6.0546875 C-10.39494141 6.03341797 -10.39494141 6.03341797 -11.734375 6.01171875 C-14.4069746 6.07555401 -14.4069746 6.07555401 -17.14453125 8.2421875 C-16.81453125 9.8921875 -16.48453125 11.5421875 -16.14453125 13.2421875 C-15.52408936 13.43329102 -14.90364746 13.62439453 -14.2644043 13.82128906 C-11.44894044 14.69731657 -8.64064633 15.59445665 -5.83203125 16.4921875 C-4.85556641 16.79253906 -3.87910156 17.09289062 -2.87304688 17.40234375 C-1.46635742 17.85673828 -1.46635742 17.85673828 -0.03125 18.3203125 C0.83282471 18.59262695 1.69689941 18.86494141 2.5871582 19.14550781 C5.26509843 20.4402347 6.33306131 21.71244771 7.85546875 24.2421875 C8.69713761 28.90548792 8.52495603 32.98355142 6.29296875 37.1796875 C0.45955973 42.11564898 -4.77669937 42.80541983 -12.265625 42.58984375 C-16.6127756 42.06488255 -18.72612584 41.00600464 -22.14453125 38.2421875 C-24.56258129 34.49811002 -25.14453125 32.73730757 -25.14453125 28.2421875 C-22.83453125 28.2421875 -20.52453125 28.2421875 -18.14453125 28.2421875 C-17.74234375 29.4178125 -17.74234375 29.4178125 -17.33203125 30.6171875 C-16.29638693 33.52333673 -16.29638693 33.52333673 -13.14453125 35.2421875 C-10.73302867 35.55881189 -10.73302867 35.55881189 -8.14453125 35.4921875 C-6.84515625 35.49992187 -6.84515625 35.49992187 -5.51953125 35.5078125 C-2.87873625 35.39633302 -2.87873625 35.39633302 -0.14453125 33.2421875 C0.10568445 30.15852879 0.10568445 30.15852879 -0.14453125 27.2421875 C-0.72944336 27.0563208 -1.31435547 26.8704541 -1.91699219 26.67895508 C-4.58204525 25.82134925 -7.23801444 24.93836355 -9.89453125 24.0546875 C-10.81492187 23.76271484 -11.7353125 23.47074219 -12.68359375 23.16992188 C-17.79045813 21.44913062 -21.42864116 20.20860449 -24.14453125 15.2421875 C-25.18199828 10.78718203 -24.72550911 7.21740033 -22.39453125 3.3046875 C-16.52936167 -2.07171794 -7.43182966 -2.62618389 0 0 Z " fill="#0B3849" transform="translate(1480.14453125,311.7578125)"/>
<path d="M0 0 C2.31 0 4.62 0 7 0 C7.33 1.32 7.66 2.64 8 4 C8.78375 3.34 9.5675 2.68 10.375 2 C14.66761574 -0.85835313 19.02222182 -0.65667758 24 0 C29.27229904 1.75743301 31.34338343 4.18671281 34 9 C34.33663684 11.75064877 34.47224142 14.07348366 34.390625 16.8046875 C34.38496521 17.5286673 34.37930542 18.25264709 34.37347412 18.99856567 C34.35123667 21.29140788 34.30106987 23.58263716 34.25 25.875 C34.22991841 27.43747729 34.21167055 28.99997929 34.1953125 30.5625 C34.15141416 34.3756133 34.08247971 38.18753402 34 42 C31.69 42 29.38 42 27 42 C26.98018066 41.21874756 26.96036133 40.43749512 26.93994141 39.63256836 C26.84424528 36.06722682 26.73474661 32.50243558 26.625 28.9375 C26.5940625 27.70837891 26.563125 26.47925781 26.53125 25.21289062 C26.30133867 16.41173327 26.30133867 16.41173327 24 8 C20.77597554 6.38798777 17.48607133 6.40563152 14 7 C11.0327216 9.2096754 9.34705454 10.68759136 8.39086914 14.3034668 C7.97065464 17.20244814 7.78868254 20.02955781 7.68359375 22.95703125 C7.64169922 24.06884766 7.59980469 25.18066406 7.55664062 26.32617188 C7.51732422 27.47666016 7.47800781 28.62714844 7.4375 29.8125 C7.37272461 31.56723633 7.37272461 31.56723633 7.30664062 33.35742188 C7.20081721 36.23817031 7.09873175 39.11900123 7 42 C4.69 42 2.38 42 0 42 C0 28.14 0 14.28 0 0 Z " fill="#0A3849" transform="translate(1675,311)"/>
<path d="M0 0 C2.31 0 4.62 0 7 0 C7.0093457 0.91813477 7.01869141 1.83626953 7.02832031 2.78222656 C7.07239931 6.19705278 7.13403732 9.61063108 7.20751953 13.02490234 C7.23570088 14.50102196 7.25692966 15.97729169 7.27099609 17.45361328 C7.29246698 19.57923057 7.33913043 21.70304879 7.390625 23.828125 C7.4220459 25.7447998 7.4220459 25.7447998 7.45410156 27.70019531 C8.08649384 31.52283128 8.89419159 32.74693038 12 35 C15.83165326 35.48766496 18.25115378 35.31617952 21.8125 33.8125 C25.14729005 31.04938825 25.87378929 28.20576652 26.31884766 23.95385742 C26.35026855 22.84888916 26.38168945 21.7439209 26.4140625 20.60546875 C26.45273438 19.40341797 26.49140625 18.20136719 26.53125 16.96289062 C26.5621875 15.71701172 26.593125 14.47113281 26.625 13.1875 C26.66367188 11.92228516 26.70234375 10.65707031 26.7421875 9.35351562 C26.83630657 6.23582149 26.92194361 3.11813086 27 0 C29.31 0 31.62 0 34 0 C34 13.53 34 27.06 34 41 C31.69 41 29.38 41 27 41 C26.67 39.68 26.34 38.36 26 37 C24.824375 37.9590625 24.824375 37.9590625 23.625 38.9375 C18.91511242 42.63812596 14.86051441 42.64816749 9 42 C4.46886206 39.77562319 2.16320797 37.51889985 0 33 C-0.25139766 30.34491636 -0.35182051 27.9384652 -0.29296875 25.29296875 C-0.28872391 24.56757401 -0.28447906 23.84217926 -0.28010559 23.09480286 C-0.26339543 20.79198109 -0.2257596 18.49005447 -0.1875 16.1875 C-0.17244316 14.6204554 -0.1587565 13.053397 -0.14648438 11.48632812 C-0.11351731 7.65721043 -0.06178992 3.82875666 0 0 Z " fill="#093648" transform="translate(2067,312)"/>
<path d="M0 0 C2.31 0 4.62 0 7 0 C7.01401855 1.36934692 7.01401855 1.36934692 7.02832031 2.76635742 C7.07245181 6.16816048 7.134114 9.56872167 7.20751953 12.9699707 C7.23566611 14.4392545 7.25691209 15.90868795 7.27099609 17.37817383 C7.2925153 19.49638114 7.33920334 21.61280153 7.390625 23.73046875 C7.41157227 25.00301514 7.43251953 26.27556152 7.45410156 27.58666992 C8.0893762 31.55884111 9.08890463 33.25660484 12 36 C16.76310385 36.68044341 18.81242359 36.70749233 22.9375 34.25 C26.39741067 30.47555199 26.15166528 26.6924231 26.31640625 21.703125 C26.35830078 20.49785156 26.40019531 19.29257812 26.44335938 18.05078125 C26.48267578 16.79652344 26.52199219 15.54226563 26.5625 14.25 C26.62727539 12.34541016 26.62727539 12.34541016 26.69335938 10.40234375 C26.79939722 7.26833635 26.90146058 4.13425067 27 1 C29.31 1 31.62 1 34 1 C34 14.53 34 28.06 34 42 C32.02 42 30.04 42 28 42 C28 40.35 28 38.7 28 37 C27.34 37 26.68 37 26 37 C25.67 37.99 25.34 38.98 25 40 C20.17248129 43.25857513 15.65041669 43.87458624 10 43 C6.1115232 41.67387207 3.55028338 39.87305113 1.32299805 36.33935547 C-0.19312258 32.51254279 -0.38362202 29.24012874 -0.29296875 25.1953125 C-0.28872391 24.4713327 -0.28447906 23.74735291 -0.28010559 23.00143433 C-0.26342972 20.70889713 -0.22580081 18.41726754 -0.1875 16.125 C-0.17243871 14.56251278 -0.15875284 13.00001165 -0.14648438 11.4375 C-0.11356293 7.62465495 -0.06186002 3.81248089 0 0 Z " fill="#0A3748" transform="translate(1078,311)"/>
<path d="M0 0 C3.24131469 2.31522478 4.69755847 4.38284019 6.625 7.875 C6.96163684 10.62564877 7.09724142 12.94848366 7.015625 15.6796875 C7.00996521 16.4036673 7.00430542 17.12764709 6.99847412 17.87356567 C6.97623667 20.16640788 6.92606987 22.45763716 6.875 24.75 C6.85491841 26.31247729 6.83667055 27.87497929 6.8203125 29.4375 C6.77641416 33.2506133 6.70747971 37.06253402 6.625 40.875 C4.315 40.875 2.005 40.875 -0.375 40.875 C-0.39481934 39.9871582 -0.41463867 39.09931641 -0.43505859 38.18457031 C-0.51328232 34.88188666 -0.59997885 31.57964936 -0.69238281 28.27734375 C-0.73060024 26.84969602 -0.76546572 25.42195437 -0.796875 23.99414062 C-0.84268401 21.93846132 -0.9006498 19.88342446 -0.9609375 17.828125 C-1.00806885 15.97429199 -1.00806885 15.97429199 -1.05615234 14.08300781 C-1.35381277 11.08817018 -1.70696569 9.34555815 -3.375 6.875 C-6.58162888 5.27168556 -9.89603353 5.38847787 -13.375 5.875 C-17.01163466 8.03100686 -17.01163466 8.03100686 -18.98413086 11.62207031 C-19.48041733 14.4826147 -19.59558156 17.26975573 -19.69140625 20.171875 C-19.73330078 21.37714844 -19.77519531 22.58242188 -19.81835938 23.82421875 C-19.85767578 25.07847656 -19.89699219 26.33273437 -19.9375 27.625 C-19.98068359 28.89472656 -20.02386719 30.16445313 -20.06835938 31.47265625 C-20.17439722 34.60666365 -20.27646058 37.74074933 -20.375 40.875 C-22.685 40.875 -24.995 40.875 -27.375 40.875 C-27.375 27.345 -27.375 13.815 -27.375 -0.125 C-25.395 -0.125 -23.415 -0.125 -21.375 -0.125 C-21.375 1.525 -21.375 3.175 -21.375 4.875 C-20.715 4.875 -20.055 4.875 -19.375 4.875 C-19.00375 3.946875 -19.00375 3.946875 -18.625 3 C-14.93683363 -3.26988283 -5.94817402 -1.98272467 0 0 Z " fill="#063446" transform="translate(1150.375,312.125)"/>
<path d="M0 0 C10.89 0 21.78 0 33 0 C33 6.57197479 32.84873944 6.87516474 28.5625 11.1875 C27.65242188 12.13367188 26.74234375 13.07984375 25.8046875 14.0546875 C25.33643555 14.53905273 24.86818359 15.02341797 24.38574219 15.52246094 C21.44433254 18.65872084 18.80272396 22.04952995 16.10546875 25.39453125 C13.76738385 28.28785709 11.38144943 31.14226068 9 34 C21.87 34.495 21.87 34.495 35 35 C35 36.98 35 38.96 35 41 C22.79 41 10.58 41 -2 41 C-2 34.42802521 -1.84873944 34.12483526 2.4375 29.8125 C3.34886719 28.86503906 4.26023437 27.91757812 5.19921875 26.94140625 C5.66763184 26.45687988 6.13604492 25.97235352 6.61865234 25.47314453 C9.52706951 22.37144973 12.13499979 19.01522927 14.796875 15.703125 C17.4726384 12.42009614 20.24368623 9.2156994 23 6 C11.615 5.505 11.615 5.505 0 5 C0 3.35 0 1.7 0 0 Z " fill="#073546" transform="translate(1905,312)"/>
<path d="M0 0 C3.63380386 2.11971892 5.49601647 4.11579906 7 8 C7.3359375 11.4609375 7.3359375 11.4609375 7.375 15.375 C7.40335938 16.66148437 7.43171875 17.94796875 7.4609375 19.2734375 C6.92559228 23.60156752 5.7893877 25.68209673 3 29 C-0.41751654 31.31661694 -3.68605047 31.59594455 -7.7421875 31.515625 C-11.28530657 30.70646978 -12.83836129 28.72819335 -14.9140625 25.85546875 C-16.32407954 23.44626697 -16.86641481 21.80528894 -17 19 C-17.04898437 18.319375 -17.09796875 17.63875 -17.1484375 16.9375 C-17.38789444 11.48524974 -16.67474055 7.77632241 -14 3 C-9.75684914 -0.93020698 -5.52311211 -0.8145919 0 0 Z " fill="#F9FAFB" transform="translate(1884,317)"/>
<path d="M0 0 C4.14771076 2.33780061 6.19407135 4.54513676 7.5 9.0625 C8.49620718 15.25766339 8.21135772 22.42608854 4.83984375 27.875 C2.0514792 30.60899533 -0.80965874 31.34358426 -4.5625 31.5625 C-8.80388657 31.31258665 -11.07522875 30.19065954 -14 27 C-16.43276501 23.32515427 -16.2996319 19.89047141 -16.3125 15.5625 C-16.32925781 14.26441406 -16.34601563 12.96632813 -16.36328125 11.62890625 C-15.90388294 7.03986294 -14.3995532 4.56104011 -11.375 1.1875 C-7.60710701 -0.6964465 -4.11671177 -0.73487229 0 0 Z " fill="#FBFCFC" transform="translate(2026,317)"/>
<path d="M0 0 C3.05247313 2.9761613 4.65110108 5.59747916 6.5 9.4375 C6.5 10.0975 6.5 10.7575 6.5 11.4375 C4.19 11.7675 1.88 12.0975 -0.5 12.4375 C-0.95375 11.468125 -1.4075 10.49875 -1.875 9.5 C-3.15786221 6.36670418 -3.15786221 6.36670418 -5.5 5.4375 C-8.55920574 5.01678408 -11.4467746 4.95235883 -14.5 5.4375 C-17.25569447 7.61909145 -18.93588747 9.30927494 -20.5 12.4375 C-21.29937994 23.53788998 -21.29937994 23.53788998 -16.9375 33.375 C-12.3034214 35.39498298 -7.22661283 35.01303761 -2.5 33.4375 C-1.27030122 29.92559191 -1.27030122 29.92559191 -0.5 26.4375 C2.51031744 25.50326355 3.36650268 25.39300089 6.5 26.4375 C6.25331325 30.63117478 5.94696258 32.8912124 3.25 36.1875 C2.3425 36.93 1.435 37.6725 0.5 38.4375 C-0.20125 39.035625 -0.9025 39.63375 -1.625 40.25 C-7.21023368 42.55694435 -13.20487245 42.20254252 -18.875 40.3125 C-23.14943987 37.25932866 -26.60127082 33.39951225 -28.5 28.4375 C-28.71884972 25.78572357 -28.82472952 23.27391477 -28.8125 20.625 C-28.82861328 19.93857422 -28.84472656 19.25214844 -28.86132812 18.54492188 C-28.86684398 12.71465983 -27.73594287 7.98850754 -23.78125 3.4765625 C-23.1934375 3.00992187 -22.605625 2.54328125 -22 2.0625 C-21.4121875 1.58039063 -20.824375 1.09828125 -20.21875 0.6015625 C-14.58111005 -3.21665729 -5.95170082 -2.6570093 0 0 Z " fill="#0A3849" transform="translate(1283.5,312.5625)"/>
<path d="M0 0 C3.8661621 2.06794717 5.35045122 4.30894586 6.8125 8.3125 C8.69409192 14.8446174 8.58475248 20.65560755 6 27 C2.94862089 30.41463852 0.50267862 32.3077876 -4.0625 32.6875 C-8.57939947 31.89883501 -8.57939947 31.89883501 -10.9375 29.125 C-13.93215485 24.58764417 -14.21063192 22.21870771 -14.3125 16.75 C-14.34988281 15.44546875 -14.38726563 14.1409375 -14.42578125 12.796875 C-13.84978363 7.66045585 -11.72215792 4.72215792 -8.125 1.125 C-5.16637753 -0.44132954 -3.30585902 -0.47226557 0 0 Z " fill="#FAFBFB" transform="translate(1518,316)"/>
<path d="M0 0 C3.299107 1.65289945 4.67791997 3.5796187 6 7 C6.9807092 13.42527978 7.43586934 21.03778189 4.57421875 26.94140625 C2.77475933 29.29454549 1.82930981 30.13548867 -1 31 C-4.30458299 31.42837187 -6.79390676 31.69996482 -9.75 29.984375 C-12.45585983 27.82489071 -13.89624641 26.31126077 -15 23 C-15.17431213 20.37960286 -15.27684435 17.80937916 -15.3125 15.1875 C-15.35600586 14.13852539 -15.35600586 14.13852539 -15.40039062 13.06835938 C-15.46280518 7.93596216 -14.36506524 5.0767859 -11 1 C-7.43874512 -0.78062744 -3.8707965 -0.71969583 0 0 Z " fill="#FBFBFC" transform="translate(1188,317)"/>
<path d="M0 0 C3.54213083 -0.08118636 7.08238743 -0.14059277 10.625 -0.1875 C11.62402344 -0.21263672 12.62304688 -0.23777344 13.65234375 -0.26367188 C19.20418061 -0.31882257 23.22743965 -0.18942949 28 3 C30 5 30 5 30.375 8.8125 C30.29323167 12.0248274 29.96945841 13.05126624 28.25 15.9375 C24.70250464 19.18937075 21.48222035 19.12489663 16.796875 19.09765625 C15.8171875 19.09443359 14.8375 19.09121094 13.828125 19.08789062 C12.81234375 19.07951172 11.7965625 19.07113281 10.75 19.0625 C9.203125 19.05573242 9.203125 19.05573242 7.625 19.04882812 C5.08330846 19.03706103 2.54164682 19.0191261 0 19 C0 12.73 0 6.46 0 0 Z " fill="#FBFBFC" transform="translate(1813,302)"/>
<path d="M0 0 C2.31 0 4.62 0 7 0 C7.07609679 7.17156168 7.12861962 14.34301914 7.16479492 21.51489258 C7.17987654 23.95438528 7.20034469 26.3938509 7.22631836 28.83325195 C7.26272812 32.34072559 7.27973289 35.84784054 7.29296875 39.35546875 C7.30845261 40.44522507 7.32393646 41.53498138 7.33988953 42.65776062 C7.34198688 52.10520326 7.34198688 52.10520326 4 56 C0.5870647 58.55970147 -2.85933938 58.23437702 -7 58 C-8 57 -8 57 -8.0625 54.4375 C-8.041875 53.633125 -8.02125 52.82875 -8 52 C-7.030625 51.87625 -6.06125 51.7525 -5.0625 51.625 C-4.051875 51.41875 -3.04125 51.2125 -2 51 C-0.79046605 48.58093209 -0.84320092 46.97833692 -0.79467773 44.27490234 C-0.77473251 43.29403656 -0.75478729 42.31317078 -0.73423767 41.30258179 C-0.71752518 40.24108917 -0.70081268 39.17959656 -0.68359375 38.0859375 C-0.66281265 37.00116119 -0.64203156 35.91638489 -0.62062073 34.79873657 C-0.55509366 31.32422379 -0.49622553 27.84963376 -0.4375 24.375 C-0.39431779 22.02342942 -0.3507036 19.67186674 -0.30664062 17.3203125 C-0.19940907 11.5469573 -0.09764856 5.7735248 0 0 Z " fill="#0B3849" transform="translate(2049,312)"/>
<path d="M0 0 C2.31 0 4.62 0 7 0 C7.07618093 7.010834 7.12865495 14.02156089 7.16479492 21.03271484 C7.179864 23.41687001 7.20032291 25.80099753 7.22631836 28.18505859 C7.26278337 31.61562937 7.27974552 35.045833 7.29296875 38.4765625 C7.30845261 39.53928375 7.32393646 40.602005 7.33988953 41.69692993 C7.34113752 47.20777461 7.19518682 51.27621395 4 56 C1.11913287 58.08327169 -1.25239774 58.22787065 -4.75 58.125 C-5.54921875 58.10695313 -6.3484375 58.08890625 -7.171875 58.0703125 C-7.77515625 58.04710937 -8.3784375 58.02390625 -9 58 C-8.505 55.03 -8.505 55.03 -8 52 C-7.030625 51.87625 -6.06125 51.7525 -5.0625 51.625 C-4.051875 51.41875 -3.04125 51.2125 -2 51 C-0.79046605 48.58093209 -0.84320092 46.97833692 -0.79467773 44.27490234 C-0.77473251 43.29403656 -0.75478729 42.31317078 -0.73423767 41.30258179 C-0.71752518 40.24108917 -0.70081268 39.17959656 -0.68359375 38.0859375 C-0.6524221 36.45877304 -0.6524221 36.45877304 -0.62062073 34.79873657 C-0.55509366 31.32422379 -0.49622553 27.84963376 -0.4375 24.375 C-0.39431779 22.02342942 -0.3507036 19.67186674 -0.30664062 17.3203125 C-0.19940907 11.5469573 -0.09764856 5.7735248 0 0 Z " fill="#083647" transform="translate(1297,312)"/>
<path d="M0 0 C3.375 0.4375 3.375 0.4375 6.375 2.4375 C5.715 4.4175 5.055 6.3975 4.375 8.4375 C2.4878125 8.3446875 2.4878125 8.3446875 0.5625 8.25 C-2.69948367 8.23359151 -2.69948367 8.23359151 -5.5625 9.6875 C-7.84485352 13.4466705 -7.79907103 17.42365111 -7.94140625 21.734375 C-7.98330078 22.93964844 -8.02519531 24.14492188 -8.06835938 25.38671875 C-8.10767578 26.64097656 -8.14699219 27.89523437 -8.1875 29.1875 C-8.23068359 30.45722656 -8.27386719 31.72695313 -8.31835938 33.03515625 C-8.42439722 36.16916365 -8.52646058 39.30324933 -8.625 42.4375 C-10.935 42.4375 -13.245 42.4375 -15.625 42.4375 C-15.625 28.9075 -15.625 15.3775 -15.625 1.4375 C-13.645 1.4375 -11.665 1.4375 -9.625 1.4375 C-9.295 2.7575 -8.965 4.0775 -8.625 5.4375 C-7.944375 4.6125 -7.26375 3.7875 -6.5625 2.9375 C-3.625 0.4375 -3.625 0.4375 0 0 Z " fill="#033143" transform="translate(1619.625,310.5625)"/>
<path d="M0 0 C2.31 0 4.62 0 7 0 C7 13.53 7 27.06 7 41 C4.69 41 2.38 41 0 41 C0 27.47 0 13.94 0 0 Z " fill="#033243" transform="translate(1720,312)"/>
<path d="M0 0 C2.31 0 4.62 0 7 0 C7 13.53 7 27.06 7 41 C4.69 41 2.38 41 0 41 C0 27.47 0 13.94 0 0 Z " fill="#093748" transform="translate(1542,312)"/>
<path d="M0 0 C0.45543387 5.69292334 -0.31753614 8.6015015 -4 13 C-7.05138114 14.92099798 -9.48195112 15.29629842 -13.0625 15.3125 C-14.34833984 15.33763672 -14.34833984 15.33763672 -15.66015625 15.36328125 C-18 15 -18 15 -19.77734375 13.69921875 C-21.86226329 10.80164686 -21.4889778 8.4228446 -21 5 C-16.13051138 0.13051138 -6.57587257 -0.15486656 0 0 Z " fill="#F4F6F7" transform="translate(1239,333)"/>
<path d="M0 0 C0.29321709 4.98469052 0.18338925 8.04820644 -3 12 C-6.91279822 15.43851965 -10.71829741 15.35305438 -15.6953125 15.3984375 C-18.46242936 14.92005459 -19.35491484 14.24617397 -21 12 C-21.63481229 6.92150171 -21.63481229 6.92150171 -19.91015625 4.41796875 C-17.13876907 2.36068133 -14.43003823 1.98035386 -11.0625 1.3125 C-9.83660156 1.06113281 -8.61070313 0.80976563 -7.34765625 0.55078125 C-4 0 -4 0 0 0 Z " fill="#F7F8F9" transform="translate(1764,333)"/>
<path d="M0 0 C0.29321709 4.98469052 0.18338925 8.04820644 -3 12 C-6.91279822 15.43851965 -10.71829741 15.35305438 -15.6953125 15.3984375 C-18.46242936 14.92005459 -19.35491484 14.24617397 -21 12 C-21.63481229 6.92150171 -21.63481229 6.92150171 -19.91015625 4.41796875 C-17.13876907 2.36068133 -14.43003823 1.98035386 -11.0625 1.3125 C-9.83660156 1.06113281 -8.61070313 0.80976563 -7.34765625 0.55078125 C-4 0 -4 0 0 0 Z " fill="#F7F8F9" transform="translate(1657,333)"/>
<path d="M0 0 C0.29321709 4.98469052 0.18338925 8.04820644 -3 12 C-6.91279822 15.43851965 -10.71829741 15.35305438 -15.6953125 15.3984375 C-18.46242936 14.92005459 -19.35491484 14.24617397 -21 12 C-21.63481229 6.92150171 -21.63481229 6.92150171 -19.91015625 4.41796875 C-17.13876907 2.36068133 -14.43003823 1.98035386 -11.0625 1.3125 C-9.83660156 1.06113281 -8.61070313 0.80976563 -7.34765625 0.55078125 C-4 0 -4 0 0 0 Z " fill="#F7F8F9" transform="translate(1341,333)"/>
<path d="M0 0 C2.9375 1.5625 2.9375 1.5625 5 4 C5.66 6.31 6.32 8.62 7 11 C-0.59 11 -8.18 11 -16 11 C-14 4 -14 4 -11.9375 1.5625 C-7.87473505 -0.59854519 -4.50874315 -0.79373518 0 0 Z " fill="#FBFCFC" transform="translate(1581,317)"/>
<path d="M0 0 C2.31 0 4.62 0 7 0 C7 2.64 7 5.28 7 8 C4.69 8 2.38 8 0 8 C0 5.36 0 2.72 0 0 Z " fill="#0C394A" transform="translate(2049,296)"/>
<path d="M0 0 C2.31 0 4.62 0 7 0 C7 2.64 7 5.28 7 8 C4.69 8 2.38 8 0 8 C0 5.36 0 2.72 0 0 Z " fill="#053344" transform="translate(1720,296)"/>
<path d="M0 0 C2.31 0 4.62 0 7 0 C7 2.64 7 5.28 7 8 C4.69 8 2.38 8 0 8 C0 5.36 0 2.72 0 0 Z " fill="#0A3849" transform="translate(1542,296)"/>
<path d="M0 0 C2.31 0 4.62 0 7 0 C7 2.64 7 5.28 7 8 C4.69 8 2.38 8 0 8 C0 5.36 0 2.72 0 0 Z " fill="#073546" transform="translate(1297,296)"/>
</svg>
